<svg width="1000" height="667" viewBox="0 0 1000 667" fill="none" xmlns="http://www.w3.org/2000/svg">
<path d="M0 666.667H1000V0.000365257H0V666.667Z" fill="#D5FFFA"/>
<mask id="mask0_3435_37" style="mask-type:luminance" maskUnits="userSpaceOnUse" x="0" y="0" width="1000" height="667">
<path d="M0 0.000365257H1000V666.667H0V0.000365257Z" fill="white"/>
</mask>
<g mask="url(#mask0_3435_37)">
<mask id="mask1_3435_37" style="mask-type:luminance" maskUnits="userSpaceOnUse" x="98" y="0" width="218" height="217">
<path d="M98.2637 0.000582593H315.225V216.962H98.2637V0.000582593Z" fill="white"/>
</mask>
<g mask="url(#mask1_3435_37)">
<path d="M315.224 216.962H98.2637V0.000582593H315.224V216.962Z" fill="#D5FFFA"/>
</g>
<mask id="mask2_3435_37" style="mask-type:luminance" maskUnits="userSpaceOnUse" x="872" y="0" width="128" height="127">
<path d="M872.662 -3.78283e-06H999.593V126.931H872.662V-3.78283e-06Z" fill="white"/>
</mask>
<g mask="url(#mask2_3435_37)">
<path d="M999.593 126.93H872.662V0.000362428H999.593V126.93Z" fill="#D5FFFA"/>
</g>
<mask id="mask3_3435_37" style="mask-type:luminance" maskUnits="userSpaceOnUse" x="783" y="242" width="217" height="218">
<path d="M783.039 242.259H1000V459.221H783.039V242.259Z" fill="white"/>
</mask>
<g mask="url(#mask3_3435_37)">
<path d="M1000 459.22H783.039V242.26H1000V459.22Z" fill="#D5FFFA"/>
</g>
<mask id="mask4_3435_37" style="mask-type:luminance" maskUnits="userSpaceOnUse" x="0" y="390" width="276" height="277">
<path d="M0 390.675H275.992V666.667H0V390.675Z" fill="white"/>
</mask>
<g mask="url(#mask4_3435_37)">
<path d="M275.992 666.667H0V390.675H275.992V666.667Z" fill="#D5FFFA"/>
</g>
<mask id="mask5_3435_37" style="mask-type:luminance" maskUnits="userSpaceOnUse" x="353" y="16" width="91" height="91">
<path d="M353.666 16.2367H443.957V106.527H353.666V16.2367Z" fill="white"/>
</mask>
<g mask="url(#mask5_3435_37)">
<path d="M443.957 106.527H353.666V16.2367H443.957V106.527Z" fill="#D5FFFA"/>
</g>
<mask id="mask6_3435_37" style="mask-type:luminance" maskUnits="userSpaceOnUse" x="539" y="542" width="124" height="124">
<path d="M539.018 542.055H662.803V665.84H539.018V542.055Z" fill="white"/>
</mask>
<g mask="url(#mask6_3435_37)">
<path d="M662.804 665.84H539.02V542.055H662.804V665.84Z" fill="#D5FFFA"/>
</g>
<mask id="mask7_3435_37" style="mask-type:luminance" maskUnits="userSpaceOnUse" x="311" y="360" width="62" height="62">
<path d="M311.227 360.042H372.493V421.31H311.227V360.042Z" fill="white"/>
</mask>
<g mask="url(#mask7_3435_37)">
<path d="M372.495 421.309H311.227V360.042H372.495V421.309Z" fill="#D5FFFA"/>
</g>
<mask id="mask8_3435_37" style="mask-type:luminance" maskUnits="userSpaceOnUse" x="924" y="573" width="62" height="62">
<path d="M924.389 573.314H985.655V634.581H924.389V573.314Z" fill="white"/>
</mask>
<g mask="url(#mask8_3435_37)">
<path d="M985.655 634.581H924.389V573.314H985.655V634.581Z" fill="#D5FFFA"/>
</g>
</g>
<mask id="mask9_3435_37" style="mask-type:luminance" maskUnits="userSpaceOnUse" x="0" y="0" width="1000" height="667">
<path d="M0 666.667H1000V0.000366211H0V666.667Z" fill="white"/>
</mask>
<g mask="url(#mask9_3435_37)">
<path d="M910.265 520.968C911.693 528.818 918.843 534.337 926.822 534.337H958.211C958.234 534.337 958.251 534.354 958.251 534.377V620.82C958.251 620.841 958.234 620.858 958.211 620.858H756.207C733.078 620.858 714.33 602.109 714.33 578.981V565.266C714.33 565.244 714.349 565.225 714.369 565.225H796.373C800.89 565.225 804.998 563.381 807.974 560.404C811.209 557.161 813.118 552.593 812.763 547.614C812.147 538.929 804.571 532.369 795.863 532.369H714.369C714.349 532.369 714.33 532.35 714.33 532.329V472.552C714.33 472.53 714.349 472.512 714.369 472.512H761.403C764.933 472.512 768.137 471.066 770.466 468.737C773.207 465.996 774.725 462.046 774.105 457.782C773.179 451.402 767.417 446.834 760.97 446.834H714.369C714.349 446.834 714.33 446.818 714.33 446.796V376.977C714.33 376.954 714.349 376.937 714.369 376.937H849.798C849.819 376.937 849.838 376.954 849.838 376.977V439.988C849.838 447.966 855.357 455.116 863.206 456.545C873.551 458.428 882.647 450.437 882.647 440.416V376.977C882.647 376.954 882.665 376.937 882.686 376.937H901.511C932.847 376.937 958.251 402.341 958.251 433.677V501.488C958.251 501.509 958.234 501.528 958.211 501.528H926.394C916.374 501.528 908.382 510.622 910.265 520.968Z" fill="#0DAA43"/>
<path d="M910.265 520.968C911.693 528.818 918.843 534.337 926.822 534.337H958.211C958.234 534.337 958.251 534.354 958.251 534.377V620.82C958.251 620.841 958.234 620.858 958.211 620.858H756.207C733.078 620.858 714.33 602.109 714.33 578.981V565.266C714.33 565.244 714.349 565.225 714.369 565.225H796.373C800.89 565.225 804.998 563.381 807.974 560.404C811.209 557.161 813.118 552.593 812.763 547.614C812.147 538.929 804.571 532.369 795.863 532.369H714.369C714.349 532.369 714.33 532.35 714.33 532.329V472.552C714.33 472.53 714.349 472.512 714.369 472.512H761.403C764.933 472.512 768.137 471.066 770.466 468.737C773.207 465.996 774.725 462.046 774.105 457.782C773.179 451.402 767.417 446.834 760.97 446.834H714.369C714.349 446.834 714.33 446.818 714.33 446.796V376.977C714.33 376.954 714.349 376.937 714.369 376.937H849.798C849.819 376.937 849.838 376.954 849.838 376.977V439.988C849.838 447.966 855.357 455.116 863.206 456.545C873.551 458.428 882.647 450.437 882.647 440.416V376.977C882.647 376.954 882.665 376.937 882.686 376.937H901.511C932.847 376.937 958.251 402.341 958.251 433.677V501.488C958.251 501.509 958.234 501.528 958.211 501.528H926.394C916.374 501.528 908.382 510.622 910.265 520.968Z" fill="#369FFF"/>
<path d="M854.833 590.903C845.026 590.903 837.002 582.879 837.002 573.073C837.002 563.265 845.026 555.242 854.833 555.242C864.638 555.242 872.662 563.265 872.662 573.073C872.662 582.879 864.638 590.903 854.833 590.903Z" fill="white"/>
<path d="M893.203 502.681C893.492 514.252 893.492 526.508 893.203 537.709" stroke="white" stroke-width="2" stroke-miterlimit="10" stroke-linecap="round" stroke-linejoin="round"/>
<path d="M893.203 384.071C893.492 391.686 893.492 399.565 893.203 407.79" stroke="white" stroke-width="2" stroke-miterlimit="10" stroke-linecap="round" stroke-linejoin="round"/>
<path d="M814.256 443.63C814.487 449.695 814.487 455.972 814.256 462.524" stroke="white" stroke-width="2" stroke-miterlimit="10" stroke-linecap="round" stroke-linejoin="round"/>
<path d="M904.582 446.239C904.873 476.605 904.873 508.122 904.582 539.021" stroke="white" stroke-width="2" stroke-miterlimit="10" stroke-linecap="round" stroke-linejoin="round"/>
<path d="M904.582 385.384C904.873 398.69 904.873 411.822 904.582 424.944" stroke="white" stroke-width="2" stroke-miterlimit="10" stroke-linecap="round" stroke-linejoin="round"/>
<path d="M814.686 401.076C814.916 411.674 814.916 422.134 814.686 432.589" stroke="white" stroke-width="2" stroke-miterlimit="10" stroke-linecap="round" stroke-linejoin="round"/>
<path d="M738.578 394.056L999.106 666.667" stroke="#013521" stroke-width="2" stroke-miterlimit="10"/>
<path d="M112.161 481.787C106.117 482.887 101.869 488.39 101.869 494.534V518.698C101.869 518.714 101.856 518.729 101.838 518.729H35.2943C35.277 518.729 35.2637 518.714 35.2637 518.698V363.194C35.2637 345.389 49.697 330.955 67.501 330.955H78.0597C78.077 330.955 78.0903 330.969 78.0903 330.986V394.113C78.0903 397.59 79.5103 400.753 81.8023 403.043C84.2997 405.534 87.8157 407.002 91.6477 406.73C98.3343 406.257 103.384 400.425 103.384 393.721V330.986C103.384 330.969 103.398 330.955 103.414 330.955H149.432C149.449 330.955 149.462 330.969 149.462 330.986V367.194C149.462 369.91 150.576 372.377 152.368 374.17C154.478 376.279 157.52 377.447 160.8 376.971C165.713 376.258 169.229 371.822 169.229 366.859V330.986C169.229 330.969 169.242 330.955 169.258 330.955H223.006C223.022 330.955 223.037 330.969 223.037 330.986V435.241C223.037 435.258 223.022 435.27 223.006 435.27H174.5C168.357 435.27 162.854 439.519 161.754 445.562C160.305 453.526 166.457 460.527 174.17 460.527H223.006C223.022 460.527 223.037 460.541 223.037 460.558V475.049C223.037 499.173 203.481 518.729 179.357 518.729H127.157C127.14 518.729 127.126 518.714 127.126 518.698V494.205C127.126 486.49 120.125 480.338 112.161 481.787Z" fill="#0DAA43"/>
<path d="M112.161 481.787C106.117 482.887 101.869 488.39 101.869 494.534V518.698C101.869 518.714 101.856 518.729 101.838 518.729H35.2943C35.277 518.729 35.2637 518.714 35.2637 518.698V363.194C35.2637 345.389 49.697 330.955 67.501 330.955H78.0597C78.077 330.955 78.0903 330.969 78.0903 330.986V394.113C78.0903 397.59 79.5103 400.753 81.8023 403.043C84.2997 405.534 87.8157 407.002 91.6477 406.73C98.3343 406.257 103.384 400.425 103.384 393.721V330.986C103.384 330.969 103.398 330.955 103.414 330.955H149.432C149.449 330.955 149.462 330.969 149.462 330.986V367.194C149.462 369.91 150.576 372.377 152.368 374.17C154.478 376.279 157.52 377.447 160.8 376.971C165.713 376.258 169.229 371.822 169.229 366.859V330.986C169.229 330.969 169.242 330.955 169.258 330.955H223.006C223.022 330.955 223.037 330.969 223.037 330.986V435.241C223.037 435.258 223.022 435.27 223.006 435.27H174.5C168.357 435.27 162.854 439.519 161.754 445.562C160.305 453.526 166.457 460.527 174.17 460.527H223.006C223.022 460.527 223.037 460.541 223.037 460.558V475.049C223.037 499.173 203.481 518.729 179.357 518.729H127.157C127.14 518.729 127.126 518.714 127.126 518.698V494.205C127.126 486.49 120.125 480.338 112.161 481.787Z" fill="#FB8D93"/>
<path d="M58.3242 439.115C58.3242 431.566 64.5002 425.389 72.0496 425.389C79.6002 425.389 85.7762 431.566 85.7762 439.115C85.7762 446.663 79.6002 452.841 72.0496 452.841C64.5002 452.841 58.3242 446.663 58.3242 439.115Z" fill="black"/>
<path d="M126.237 468.653C117.331 468.876 107.896 468.876 99.2734 468.653" stroke="#013521" stroke-width="2" stroke-miterlimit="10" stroke-linecap="round" stroke-linejoin="round"/>
<path d="M217.544 468.653C211.682 468.876 205.617 468.876 199.285 468.653" stroke="#013521" stroke-width="2" stroke-miterlimit="10" stroke-linecap="round" stroke-linejoin="round"/>
<path d="M171.696 407.879C167.026 408.057 162.196 408.057 157.15 407.879" stroke="#013521" stroke-width="2" stroke-miterlimit="10" stroke-linecap="round" stroke-linejoin="round"/>
<path d="M169.688 477.414C146.312 477.637 122.049 477.637 98.2637 477.414" stroke="#013521" stroke-width="2" stroke-miterlimit="10" stroke-linecap="round" stroke-linejoin="round"/>
<path d="M216.535 477.414C206.293 477.637 196.183 477.637 186.082 477.414" stroke="#013521" stroke-width="2" stroke-miterlimit="10" stroke-linecap="round" stroke-linejoin="round"/>
<path d="M204.455 408.21C196.295 408.388 188.243 408.388 180.195 408.21" stroke="#013521" stroke-width="2" stroke-miterlimit="10" stroke-linecap="round" stroke-linejoin="round"/>
<path d="M209.859 349.623L0 550.179" stroke="#013521" stroke-width="2" stroke-miterlimit="10"/>
<path d="M75.7566 124.242C74.5379 117.547 68.4419 112.842 61.6379 112.842H34.8712C34.8526 112.842 34.8379 112.826 34.8379 112.807V39.0966C34.8379 39.0766 34.8526 39.0619 34.8712 39.0619H207.125C226.847 39.0619 242.835 55.0499 242.835 74.7725V86.4672C242.835 86.4872 242.821 86.5019 242.802 86.5019H172.875C169.023 86.5019 165.521 88.0752 162.982 90.6139C160.225 93.3792 158.597 97.2739 158.898 101.519C159.423 108.926 165.885 114.519 173.31 114.519H242.802C242.821 114.519 242.835 114.535 242.835 114.554V165.527C242.835 165.546 242.821 165.561 242.802 165.561H202.694C199.685 165.561 196.953 166.794 194.966 168.781C192.629 171.117 191.335 174.486 191.863 178.121C192.654 183.562 197.566 187.457 203.063 187.457H242.802C242.821 187.457 242.835 187.471 242.835 187.49V247.026C242.835 247.046 242.821 247.061 242.802 247.061H127.318C127.299 247.061 127.285 247.046 127.285 247.026V193.297C127.285 186.493 122.578 180.395 115.885 179.178C107.063 177.571 99.3072 184.386 99.3072 192.93V247.026C99.3072 247.046 99.2912 247.061 99.2725 247.061H83.2219C56.4992 247.061 34.8379 225.398 34.8379 198.677V140.853C34.8379 140.834 34.8526 140.819 34.8712 140.819H62.0032C70.5472 140.819 77.3619 133.063 75.7566 124.242Z" fill="#0DAA43"/>
<path d="M75.7566 124.242C74.5379 117.547 68.4419 112.842 61.6379 112.842H34.8712C34.8526 112.842 34.8379 112.826 34.8379 112.807V39.0966C34.8379 39.0766 34.8526 39.0619 34.8712 39.0619H207.125C226.847 39.0619 242.835 55.0499 242.835 74.7725V86.4672C242.835 86.4872 242.821 86.5019 242.802 86.5019H172.875C169.023 86.5019 165.521 88.0752 162.982 90.6139C160.225 93.3792 158.597 97.2739 158.898 101.519C159.423 108.926 165.885 114.519 173.31 114.519H242.802C242.821 114.519 242.835 114.535 242.835 114.554V165.527C242.835 165.546 242.821 165.561 242.802 165.561H202.694C199.685 165.561 196.953 166.794 194.966 168.781C192.629 171.117 191.335 174.486 191.863 178.121C192.654 183.562 197.566 187.457 203.063 187.457H242.802C242.821 187.457 242.835 187.471 242.835 187.49V247.026C242.835 247.046 242.821 247.061 242.802 247.061H127.318C127.299 247.061 127.285 247.046 127.285 247.026V193.297C127.285 186.493 122.578 180.395 115.885 179.178C107.063 177.571 99.3072 184.386 99.3072 192.93V247.026C99.3072 247.046 99.2912 247.061 99.2725 247.061H83.2219C56.4992 247.061 34.8379 225.398 34.8379 198.677V140.853C34.8379 140.834 34.8526 140.819 34.8712 140.819H62.0032C70.5472 140.819 77.3619 133.063 75.7566 124.242Z" fill="#00C6BA"/>
<path d="M123.026 64.6053C131.389 64.6053 138.23 71.4466 138.23 79.8093C138.23 88.172 131.389 95.0146 123.026 95.0146C114.665 95.0146 107.822 88.172 107.822 79.8093C107.822 71.4466 114.665 64.6053 123.026 64.6053Z" fill="white"/>
<path d="M90.3061 139.835C90.0594 129.97 90.0594 119.518 90.3061 109.967" stroke="#013521" stroke-width="2" stroke-miterlimit="10" stroke-linecap="round" stroke-linejoin="round"/>
<path d="M90.3061 240.977C90.0594 234.483 90.0594 227.765 90.3061 220.75" stroke="#013521" stroke-width="2" stroke-miterlimit="10" stroke-linecap="round" stroke-linejoin="round"/>
<path d="M157.627 190.188C157.431 185.016 157.431 179.664 157.627 174.076" stroke="#013521" stroke-width="2" stroke-miterlimit="10" stroke-linecap="round" stroke-linejoin="round"/>
<path d="M80.603 187.964C80.3563 162.069 80.3563 135.193 80.603 108.847" stroke="#013521" stroke-width="2" stroke-miterlimit="10" stroke-linecap="round" stroke-linejoin="round"/>
<path d="M80.603 239.856C80.3563 228.511 80.3563 217.312 80.603 206.123" stroke="#013521" stroke-width="2" stroke-miterlimit="10" stroke-linecap="round" stroke-linejoin="round"/>
<path d="M157.259 226.477C157.062 217.439 157.062 208.518 157.259 199.605" stroke="#013521" stroke-width="2" stroke-miterlimit="10" stroke-linecap="round" stroke-linejoin="round"/>
<path d="M222.159 232.462L0 0.000603862" stroke="#013521" stroke-width="2" stroke-miterlimit="10"/>
<path d="M754.721 569.03C755.679 574.29 760.469 577.99 765.816 577.99H786.852C786.865 577.99 786.879 578.002 786.879 578.015V635.943C786.879 635.958 786.865 635.97 786.852 635.97H651.484C635.985 635.97 623.42 623.404 623.42 607.906V598.715C623.42 598.7 623.432 598.688 623.448 598.688H678.4C681.427 598.688 684.18 597.451 686.175 595.456C688.341 593.283 689.621 590.223 689.384 586.887C688.971 581.066 683.893 576.67 678.059 576.67H623.448C623.432 576.67 623.42 576.659 623.42 576.643V536.586C623.42 536.571 623.432 536.559 623.448 536.559H654.967C657.331 536.559 659.477 535.591 661.039 534.03C662.876 532.192 663.892 529.546 663.477 526.688C662.857 522.414 658.996 519.352 654.676 519.352H623.448C623.432 519.352 623.42 519.34 623.42 519.326V472.539C623.42 472.523 623.432 472.511 623.448 472.511H714.2C714.216 472.511 714.228 472.523 714.228 472.539V514.764C714.228 520.111 717.925 524.9 723.187 525.859C730.119 527.12 736.213 521.766 736.213 515.051V472.539C736.213 472.523 736.227 472.511 736.241 472.511H748.856C769.855 472.511 786.879 489.535 786.879 510.535V555.976C786.879 555.991 786.865 556.002 786.852 556.002H765.529C758.815 556.002 753.46 562.098 754.721 569.03Z" fill="#0DAA43"/>
<path d="M754.721 569.03C755.679 574.29 760.469 577.99 765.816 577.99H786.852C786.865 577.99 786.879 578.002 786.879 578.015V635.943C786.879 635.958 786.865 635.97 786.852 635.97H651.484C635.985 635.97 623.42 623.404 623.42 607.906V598.715C623.42 598.7 623.432 598.688 623.448 598.688H678.4C681.427 598.688 684.18 597.451 686.175 595.456C688.341 593.283 689.621 590.223 689.384 586.887C688.971 581.066 683.893 576.67 678.059 576.67H623.448C623.432 576.67 623.42 576.659 623.42 576.643V536.586C623.42 536.571 623.432 536.559 623.448 536.559H654.967C657.331 536.559 659.477 535.591 661.039 534.03C662.876 532.192 663.892 529.546 663.477 526.688C662.857 522.414 658.996 519.352 654.676 519.352H623.448C623.432 519.352 623.42 519.34 623.42 519.326V472.539C623.42 472.523 623.432 472.511 623.448 472.511H714.2C714.216 472.511 714.228 472.523 714.228 472.539V514.764C714.228 520.111 717.925 524.9 723.187 525.859C730.119 527.12 736.213 521.766 736.213 515.051V472.539C736.213 472.523 736.227 472.511 736.241 472.511H748.856C769.855 472.511 786.879 489.535 786.879 510.535V555.976C786.879 555.991 786.865 556.002 786.852 556.002H765.529C758.815 556.002 753.46 562.098 754.721 569.03Z" fill="#FB8D93"/>
<path d="M717.575 615.896C711.003 615.896 705.627 610.52 705.627 603.948C705.627 597.374 711.003 591.998 717.575 591.998C724.147 591.998 729.524 597.374 729.524 603.948C729.524 610.52 724.147 615.896 717.575 615.896Z" fill="black"/>
<path d="M743.289 556.776C743.484 564.529 743.484 572.744 743.289 580.248" stroke="black" stroke-width="2" stroke-miterlimit="10" stroke-linecap="round" stroke-linejoin="round"/>
<path d="M743.289 477.293C743.484 482.396 743.484 487.676 743.289 493.188" stroke="black" stroke-width="2" stroke-miterlimit="10" stroke-linecap="round" stroke-linejoin="round"/>
<path d="M690.383 517.204C690.537 521.269 690.537 525.475 690.383 529.865" stroke="black" stroke-width="2" stroke-miterlimit="10" stroke-linecap="round" stroke-linejoin="round"/>
<path d="M750.914 518.953C751.109 539.302 751.109 560.424 750.914 581.129" stroke="black" stroke-width="2" stroke-miterlimit="10" stroke-linecap="round" stroke-linejoin="round"/>
<path d="M750.914 478.173C751.109 487.089 751.109 495.889 750.914 504.684" stroke="black" stroke-width="2" stroke-miterlimit="10" stroke-linecap="round" stroke-linejoin="round"/>
<path d="M690.672 488.687C690.825 495.79 690.825 502.8 690.672 509.806" stroke="black" stroke-width="2" stroke-miterlimit="10" stroke-linecap="round" stroke-linejoin="round"/>
<path d="M784.062 635.073L814.256 666.666" stroke="#013521" stroke-width="2" stroke-miterlimit="10"/>
<path d="M639.672 483.984L784.064 635.072" stroke="black" stroke-width="2" stroke-miterlimit="10"/>
<path d="M940.684 244.126C941.641 249.386 946.432 253.085 951.779 253.085H972.815C972.828 253.085 972.84 253.098 972.84 253.112V311.04C972.84 311.054 972.828 311.066 972.815 311.066H837.447C821.947 311.066 809.383 298.501 809.383 283.002V273.812C809.383 273.796 809.395 273.785 809.409 273.785H864.363C867.388 273.785 870.143 272.548 872.137 270.553C874.304 268.38 875.583 265.318 875.345 261.984C874.933 256.162 869.856 251.766 864.021 251.766H809.409C809.395 251.766 809.383 251.754 809.383 251.74V211.682C809.383 211.668 809.395 211.656 809.409 211.656H840.929C843.293 211.656 845.44 210.686 847.001 209.126C848.839 207.289 849.855 204.642 849.44 201.785C848.82 197.51 844.959 194.449 840.639 194.449H809.409C809.395 194.449 809.383 194.437 809.383 194.422V147.634C809.383 147.62 809.395 147.608 809.409 147.608H900.163C900.177 147.608 900.191 147.62 900.191 147.634V189.86C900.191 195.206 903.888 199.997 909.149 200.956C916.081 202.217 922.176 196.861 922.176 190.148V147.634C922.176 147.62 922.188 147.608 922.204 147.608H934.817C955.817 147.608 972.84 164.632 972.84 185.632V231.072C972.84 231.088 951.491 231.098 951.491 231.098C944.777 231.098 939.423 237.194 940.684 244.126Z" fill="#00C6BA"/>
<path d="M903.537 290.992C896.965 290.992 891.588 285.615 891.588 279.044C891.588 272.471 896.965 267.095 903.537 267.095C910.109 267.095 915.485 272.471 915.485 279.044C915.485 285.615 910.109 290.992 903.537 290.992Z" fill="black"/>
<path d="M929.25 231.873C929.443 239.626 929.443 247.839 929.25 255.345" stroke="black" stroke-width="2" stroke-miterlimit="10" stroke-linecap="round" stroke-linejoin="round"/>
<path d="M929.25 152.39C929.443 157.492 929.443 162.772 929.25 168.284" stroke="black" stroke-width="2" stroke-miterlimit="10" stroke-linecap="round" stroke-linejoin="round"/>
<path d="M876.346 192.302C876.5 196.366 876.5 200.572 876.346 204.963" stroke="black" stroke-width="2" stroke-miterlimit="10" stroke-linecap="round" stroke-linejoin="round"/>
<path d="M936.877 194.05C937.072 214.399 937.072 235.519 936.877 256.225" stroke="black" stroke-width="2" stroke-miterlimit="10" stroke-linecap="round" stroke-linejoin="round"/>
<path d="M936.877 153.27C937.072 162.186 937.072 170.986 936.877 179.78" stroke="black" stroke-width="2" stroke-miterlimit="10" stroke-linecap="round" stroke-linejoin="round"/>
<path d="M876.633 163.784C876.787 170.887 876.787 177.896 876.633 184.901" stroke="black" stroke-width="2" stroke-miterlimit="10" stroke-linecap="round" stroke-linejoin="round"/>
<path d="M825.633 159.081L1000.22 341.764" stroke="black" stroke-width="2" stroke-miterlimit="10"/>
<path d="M235.179 607.081C229.776 607.921 225.921 612.803 225.921 618.271V639.263C225.921 639.276 225.909 639.288 225.895 639.288H167.968C167.953 639.288 167.941 639.276 157.357 628.677V510.824C157.357 491.497 173.023 475.831 192.348 475.831H205.196C205.211 475.831 205.223 475.843 205.223 475.857V530.811C205.223 533.836 206.459 536.591 208.455 538.585C210.633 540.759 213.707 542.039 217.055 541.792C222.868 541.364 227.24 536.268 227.24 530.439V475.857C227.24 475.843 227.252 475.831 227.267 475.831H267.325C267.34 475.831 267.352 475.843 267.352 475.857V507.377C267.352 509.741 268.32 511.888 269.881 513.449C271.759 515.328 274.483 516.347 277.411 515.859C281.601 515.16 284.559 511.335 284.559 507.087V475.857C284.559 475.843 284.571 475.831 284.585 475.831H331.372C331.387 475.831 331.399 475.843 331.399 475.857V566.611C331.399 566.627 331.387 566.639 331.372 566.639H289.189C283.723 566.639 278.841 570.493 278.003 575.895C276.944 582.703 282.241 588.624 288.86 588.624H331.372C331.387 588.624 331.399 588.636 331.399 588.652V601.265C331.399 622.265 314.375 639.288 293.375 639.288H247.935C247.92 639.288 247.908 639.276 247.908 639.263V617.94C247.908 611.323 241.987 606.024 235.179 607.081Z" fill="#369FFF"/>
<path d="M188.016 569.985C188.016 563.413 193.393 558.037 199.964 558.037C206.536 558.037 211.913 563.413 211.913 569.985C211.913 576.557 206.536 581.935 199.964 581.935C193.393 581.935 188.016 576.557 188.016 569.985Z" fill="#369FFF"/>
<path d="M247.136 595.699C239.383 595.893 231.169 595.893 223.664 595.699" stroke="white" stroke-width="2" stroke-miterlimit="10" stroke-linecap="round" stroke-linejoin="round"/>
<path d="M326.619 595.699C321.517 595.893 316.237 595.893 310.725 595.699" stroke="white" stroke-width="2" stroke-miterlimit="10" stroke-linecap="round" stroke-linejoin="round"/>
<path d="M286.706 542.794C282.642 542.949 278.436 542.949 274.045 542.794" stroke="white" stroke-width="2" stroke-miterlimit="10" stroke-linecap="round" stroke-linejoin="round"/>
<path d="M284.958 603.326C264.609 603.52 243.487 603.52 222.783 603.326" stroke="white" stroke-width="2" stroke-miterlimit="10" stroke-linecap="round" stroke-linejoin="round"/>
<path d="M325.738 603.326C316.822 603.52 308.022 603.52 299.229 603.326" stroke="white" stroke-width="2" stroke-miterlimit="10" stroke-linecap="round" stroke-linejoin="round"/>
<path d="M315.225 543.082C308.122 543.237 301.113 543.237 294.107 543.082" stroke="white" stroke-width="2" stroke-miterlimit="10" stroke-linecap="round" stroke-linejoin="round"/>
<path d="M319.927 492.082L137.244 666.666" stroke="black" stroke-width="2" stroke-miterlimit="10"/>
<path d="M262.923 257.839L127.496 320.679L171.272 289.839L175.159 282.549C178.96 275.421 185.792 270.407 193.729 268.917L262.923 257.839Z" fill="#013521"/>
<path d="M302.085 296.308L170.701 314.722L216.041 302.563L221.443 297.739C226.723 293.022 233.86 290.958 240.843 292.13L302.085 296.308Z" fill="#013521"/>
<path d="M215.94 216.746L99.5176 335.423L132.81 287.247L134.05 278.299C135.26 269.548 140.38 261.823 147.966 257.298L215.94 216.746Z" fill="#013521"/>
<path d="M315.245 369.308L96.3691 334.445L118.892 319.141C144.802 301.536 178.245 299.44 206.153 313.672L315.245 369.308Z" fill="#369FFF"/>
<path d="M315.246 369.307C315.246 369.307 197.608 315.276 116.59 329.187C104.865 331.2 94.0438 336.771 85.6318 345.182L0.0078125 430.806" stroke="#013521" stroke-width="2" stroke-miterlimit="10" stroke-linecap="round" stroke-linejoin="round"/>
<path d="M737.301 4.49789L872.727 67.3379L828.951 36.4979L825.063 29.2072C821.265 22.0819 814.433 17.0659 806.494 15.5766L737.301 4.49789Z" fill="#FB8D93"/>
<path d="M698.139 42.9675L829.524 61.3809L784.183 49.2222L778.781 44.3982C773.501 39.6809 766.365 37.6169 759.383 38.7889L698.139 42.9675Z" fill="#FB8D93"/>
<path d="M784.285 -36.5957L900.706 82.083L867.416 33.9057L866.177 24.9563C864.966 16.207 859.846 8.48168 852.26 3.95634L784.285 -36.5957Z" fill="#FB8D93"/>
<path d="M684.98 115.965L903.856 81.1035L881.334 65.7982C855.422 48.1928 821.979 46.0982 794.072 60.3288L684.98 115.965Z" fill="#00C6BA"/>
<path d="M684.98 115.965C684.98 115.965 802.618 61.9342 883.636 75.8462C895.362 77.8595 906.182 83.4288 914.595 91.8408L1000.22 177.465" stroke="#013521" stroke-width="2" stroke-miterlimit="10" stroke-linecap="round" stroke-linejoin="round"/>
<path d="M407.505 579.396C398.586 579.396 391.289 572.097 391.289 563.18V464.837C391.289 455.918 398.586 448.621 407.505 448.621C416.424 448.621 423.721 455.918 423.721 464.837V563.18C423.721 572.097 416.424 579.396 407.505 579.396Z" fill="#FB8D93"/>
<path d="M407.506 438.159V743.646" stroke="#013521" stroke-width="2" stroke-miterlimit="10" stroke-linecap="round" stroke-linejoin="round"/>
<path d="M415.352 458.878H409.074L405.936 464.314L409.074 469.75H415.352L418.49 464.314L415.352 458.878Z" stroke="white" stroke-width="2" stroke-miterlimit="10" stroke-linecap="round" stroke-linejoin="round"/>
<path d="M415.352 475.411H409.074L405.936 480.847L409.074 486.283H415.352L418.49 480.847L415.352 475.411Z" stroke="white" stroke-width="2" stroke-miterlimit="10" stroke-linecap="round" stroke-linejoin="round"/>
<path d="M415.416 492H409.139L406 497.436L409.139 502.872H415.416L418.555 497.436L415.416 492Z" stroke="white" stroke-width="2" stroke-miterlimit="10" stroke-linecap="round" stroke-linejoin="round"/>
<path d="M475.216 627.773C466.297 627.773 459 620.476 459 611.557V513.216C459 504.297 466.297 497 475.216 497C484.135 497 491.432 504.297 491.432 513.216V611.557C491.432 620.476 484.135 627.773 475.216 627.773Z" fill="#369FFF"/>
<path d="M474.717 486.545V792.033" stroke="#013521" stroke-width="2" stroke-miterlimit="10" stroke-linecap="round" stroke-linejoin="round"/>
<path d="M482.564 507.264H476.287L473.148 512.7L476.287 518.136H482.564L485.703 512.7L482.564 507.264Z" stroke="white" stroke-width="2" stroke-miterlimit="10" stroke-linecap="round" stroke-linejoin="round"/>
<path d="M482.564 523.798H476.287L473.148 529.234L476.287 534.67H482.564L485.703 529.234L482.564 523.798Z" stroke="white" stroke-width="2" stroke-miterlimit="10" stroke-linecap="round" stroke-linejoin="round"/>
<path d="M482.564 540.536H476.287L473.148 545.972L476.287 551.408H482.564L485.703 545.972L482.564 540.536Z" stroke="white" stroke-width="2" stroke-miterlimit="10" stroke-linecap="round" stroke-linejoin="round"/>
<path d="M64.3859 709.749C55.4673 709.749 48.1699 702.452 48.1699 693.533V595.19C48.1699 586.272 55.4673 578.974 64.3859 578.974C73.3046 578.974 80.6019 586.272 80.6019 595.19V693.533C80.6019 702.452 73.3046 709.749 64.3859 709.749Z" fill="#00C6BA"/>
<path d="M64.3867 568.513V874.001" stroke="#013521" stroke-width="2" stroke-miterlimit="10" stroke-linecap="round" stroke-linejoin="round"/>
<path d="M72.2324 589.231H65.9551L62.8164 594.667L65.9551 600.103H72.2324L75.3711 594.667L72.2324 589.231Z" stroke="white" stroke-width="2" stroke-miterlimit="10" stroke-linecap="round" stroke-linejoin="round"/>
<path d="M72.2324 605.764H65.9551L62.8164 611.2L65.9551 616.636H72.2324L75.3711 611.2L72.2324 605.764Z" stroke="white" stroke-width="2" stroke-miterlimit="10" stroke-linecap="round" stroke-linejoin="round"/>
<path d="M72.2324 622.504H65.9551L62.8164 627.94L65.9551 633.376H72.2324L75.3711 627.94L72.2324 622.504Z" stroke="white" stroke-width="2" stroke-miterlimit="10" stroke-linecap="round" stroke-linejoin="round"/>
<path d="M553.682 220.081V29.7197" stroke="#FB8D93" stroke-width="2" stroke-miterlimit="10" stroke-linecap="round" stroke-linejoin="round"/>
<path d="M458.502 124.9H648.865" stroke="#FB8D93" stroke-width="2" stroke-miterlimit="10" stroke-linecap="round" stroke-linejoin="round"/>
<path d="M486.379 192.203L620.986 57.5965" stroke="#FB8D93" stroke-width="2" stroke-miterlimit="10" stroke-linecap="round" stroke-linejoin="round"/>
<path d="M486.379 57.5974C486.379 57.5974 618.214 189.432 620.986 192.204" stroke="#FB8D93" stroke-width="2" stroke-miterlimit="10" stroke-linecap="round" stroke-linejoin="round"/>
<path d="M464.742 158.8C464.742 158.8 638.96 92.3958 642.621 90.9998" stroke="#FB8D93" stroke-width="2" stroke-miterlimit="10" stroke-linecap="round" stroke-linejoin="round"/>
<path d="M519.783 35.9612C519.783 35.9612 586.186 210.179 587.582 213.84" stroke="#FB8D93" stroke-width="2" stroke-miterlimit="10" stroke-linecap="round" stroke-linejoin="round"/>
<path d="M466.822 85.9807C466.822 85.9807 636.966 162.217 640.544 163.819" stroke="#FB8D93" stroke-width="2" stroke-miterlimit="10" stroke-linecap="round" stroke-linejoin="round"/>
<path d="M592.601 38.0404C592.601 38.0404 516.365 208.184 514.764 211.762" stroke="#FB8D93" stroke-width="2" stroke-miterlimit="10" stroke-linecap="round" stroke-linejoin="round"/>
<path d="M585.8 123.831C585.8 140.721 572.107 154.414 555.217 154.414C538.328 154.414 524.635 140.721 524.635 123.831C524.635 106.941 538.328 93.2487 555.217 93.2487C572.107 93.2487 585.8 106.941 585.8 123.831Z" fill="#FB8D93"/>
<path d="M648.867 123.572H585.794C585.767 120.454 585.278 117.448 584.386 114.62C615.916 102.601 641.711 92.7689 643.095 92.2409C643.782 91.9809 644.124 91.2116 643.864 90.5263C643.602 89.8423 642.834 89.4996 642.15 89.7596C640.764 90.2876 614.99 100.112 583.474 112.125C582.055 108.7 580.027 105.593 577.531 102.929C601.376 79.0849 620.878 59.5836 621.924 58.5369C622.444 58.0183 622.444 57.1783 621.924 56.6583C621.407 56.1409 620.564 56.1383 620.047 56.6583C618.999 57.7063 599.49 77.2143 575.636 101.069C573.386 99.0476 570.832 97.3609 568.055 96.0743L593.815 38.5836C594.115 37.9143 593.815 37.1289 593.146 36.8289C592.476 36.5236 591.688 36.825 591.39 37.4983L565.599 95.0596C562.356 93.8889 558.862 93.2489 555.218 93.2489H555.014V154.4C554.899 154.404 555.058 154.414 555.218 154.414C557.95 154.414 560.596 154.052 563.116 153.378C575.516 185.916 585.8 212.896 586.34 214.313C586.543 214.844 587.047 215.169 587.582 215.169C587.739 215.169 587.899 215.142 588.055 215.081C588.74 214.821 589.084 214.053 588.824 213.369C588.283 211.953 578.031 185.052 565.656 152.585C568.888 151.41 571.863 149.706 574.483 147.578L620.047 193.142C620.306 193.402 620.646 193.532 620.986 193.532C621.326 193.532 621.666 193.401 621.924 193.142C622.444 192.624 622.444 191.782 621.924 191.265C620.862 190.201 600.796 170.136 576.471 145.812C578.555 143.796 580.351 141.489 581.796 138.953L640 165.032C640.175 165.112 640.36 165.149 640.543 165.149C641.05 165.149 641.535 164.857 641.755 164.362C642.055 163.693 641.755 162.908 641.086 162.608L583.011 136.586C584.48 133.392 585.412 129.902 585.698 126.229H648.867C649.599 126.229 650.192 125.634 650.192 124.901C650.192 124.166 649.599 123.572 648.867 123.572Z" fill="#00C6BA"/>
</g>
<path d="M729.787 150.189V197.967" stroke="#013521" stroke-width="2.66667" stroke-miterlimit="10" stroke-linecap="round" stroke-linejoin="round"/>
<path d="M705.889 174.077H753.685" stroke="#013521" stroke-width="2.66667" stroke-miterlimit="10" stroke-linecap="round" stroke-linejoin="round"/>
<path d="M712.889 157.186L746.686 190.97" stroke="#013521" stroke-width="2.66667" stroke-miterlimit="10" stroke-linecap="round" stroke-linejoin="round"/>
<path d="M712.889 190.969L746.686 157.185" stroke="#013521" stroke-width="2.66667" stroke-miterlimit="10" stroke-linecap="round" stroke-linejoin="round"/>
<path d="M315.223 26.0352V73.8125" stroke="#013521" stroke-width="2.66667" stroke-miterlimit="10" stroke-linecap="round" stroke-linejoin="round"/>
<path d="M291.326 49.9238H339.122" stroke="#013521" stroke-width="2.66667" stroke-miterlimit="10" stroke-linecap="round" stroke-linejoin="round"/>
<path d="M298.324 33.0318L332.122 66.8145" stroke="#013521" stroke-width="2.66667" stroke-miterlimit="10" stroke-linecap="round" stroke-linejoin="round"/>
<path d="M298.324 66.8154L332.122 33.0328" stroke="#013521" stroke-width="2.66667" stroke-miterlimit="10" stroke-linecap="round" stroke-linejoin="round"/>
<path d="M553.682 440.426V488.202" stroke="black" stroke-width="2.66667" stroke-miterlimit="10" stroke-linecap="round" stroke-linejoin="round"/>
<path d="M529.783 464.314H577.579" stroke="black" stroke-width="2.66667" stroke-miterlimit="10" stroke-linecap="round" stroke-linejoin="round"/>
<path d="M536.783 447.422L570.581 481.206" stroke="black" stroke-width="2.66667" stroke-miterlimit="10" stroke-linecap="round" stroke-linejoin="round"/>
<path d="M536.783 481.206L570.581 447.422" stroke="black" stroke-width="2.66667" stroke-miterlimit="10" stroke-linecap="round" stroke-linejoin="round"/>
<path d="M958.22 38.6091C958.22 43.3637 954.365 47.2197 949.611 47.2197C944.856 47.2197 941 43.3637 941 38.6091C941 33.8544 944.856 29.9997 949.611 29.9997C954.365 29.9997 958.22 33.8544 958.22 38.6091Z" fill="#FB8D93"/>
<path d="M47.7506 303.265C47.7506 306.832 44.8599 309.723 41.2933 309.723C37.7266 309.723 34.8359 306.832 34.8359 303.265C34.8359 299.699 37.7266 296.808 41.2933 296.808C44.8599 296.808 47.7506 299.699 47.7506 303.265Z" fill="#369FFF"/>
<path d="M757.988 349.622C757.988 352 756.062 353.928 753.683 353.928C751.306 353.928 749.379 352 749.379 349.622C749.379 347.245 751.306 345.317 753.683 345.317C756.062 345.317 757.988 347.245 757.988 349.622Z" fill="black"/>
<path d="M476.375 30.4517C476.375 32.2344 474.93 33.6797 473.147 33.6797C471.363 33.6797 469.918 32.2344 469.918 30.4517C469.918 28.669 471.363 27.2237 473.147 27.2237C474.93 27.2237 476.375 28.669 476.375 30.4517Z" fill="#369FFF"/>
<path d="M376.798 633.376C376.798 635.754 374.87 637.682 372.493 637.682C370.116 637.682 368.188 635.754 368.188 633.376C368.188 630.999 370.116 629.071 372.493 629.071C374.87 629.071 376.798 630.999 376.798 633.376Z" fill="#369FFF"/>
<path d="M291.011 143.061C291.011 145.438 289.083 147.366 286.706 147.366C284.328 147.366 282.4 145.438 282.4 143.061C282.4 140.684 284.328 138.756 286.706 138.756C289.083 138.756 291.011 140.684 291.011 143.061Z" fill="black"/>
<path d="M518.203 600.103C518.203 601.887 516.756 603.332 514.973 603.332C513.189 603.332 511.744 601.887 511.744 600.103C511.744 598.32 513.189 596.875 514.973 596.875C516.756 596.875 518.203 598.32 518.203 600.103Z" fill="#FB8D93"/>
<path d="M961.48 341.763C961.48 343.547 960.033 344.992 958.251 344.992C956.468 344.992 955.021 343.547 955.021 341.763C955.021 339.98 956.468 338.535 958.251 338.535C960.033 338.535 961.48 339.98 961.48 341.763Z" fill="black"/>
<path d="M111.049 569.986C111.049 571.77 109.604 573.215 107.82 573.215C106.037 573.215 104.592 571.77 104.592 569.986C104.592 568.203 106.037 566.756 107.82 566.756C109.604 566.756 111.049 568.203 111.049 569.986Z" fill="#369FFF"/>
<path d="M898.8 650.87C898.8 653.842 896.389 656.251 893.418 656.251C890.446 656.251 888.037 653.842 888.037 650.87C888.037 647.898 890.446 645.488 893.418 645.488C896.389 645.488 898.8 647.898 898.8 650.87Z" fill="#369FFF"/>
</svg>
