<svg width="316" height="79" viewBox="0 0 316 79" fill="none" xmlns="http://www.w3.org/2000/svg">
<path d="M94.7222 50.4671L92.1376 56.5209C91.1439 58.848 87.9953 58.848 87.0015 56.5209L84.4169 50.4671C82.1162 45.0796 77.9762 40.7906 72.8116 38.447L65.6966 35.2179C63.4345 34.1912 63.4345 30.8264 65.6966 29.7996L72.5886 26.6706C77.8859 24.2663 82.1008 19.8188 84.3614 14.2476L86.9799 7.79556C87.9513 5.40148 91.1863 5.40148 92.1584 7.79556L94.777 14.2476C97.0376 19.8188 101.252 24.2663 106.55 26.6706L113.443 29.7996C115.705 30.8264 115.705 34.1912 113.443 35.2179L106.328 38.4478C101.162 40.7906 97.0221 45.0796 94.7222 50.4671Z" fill="url(#paint0_radial_3385_678)"/>
<path d="M118.742 69.5566L118.015 71.2607C117.483 72.5082 115.794 72.5082 115.262 71.2607L114.536 69.5566C113.24 66.5191 110.906 64.1005 107.994 62.7773L105.754 61.7601C104.543 61.2097 104.543 59.4094 105.754 58.8598L107.869 57.8993C110.856 56.5422 113.232 54.0337 114.506 50.8929L115.252 49.0516C115.772 47.7686 117.507 47.7686 118.027 49.0516L118.774 50.8929C120.047 54.0337 122.423 56.5422 125.41 57.8993L127.525 58.8598C128.736 59.4102 128.736 61.2105 127.525 61.7601L125.285 62.7773C122.371 64.0998 120.037 66.5191 118.742 69.5566Z" fill="url(#paint1_radial_3385_678)"/>
<path d="M137.293 60.2348V16.856H152.646C156.005 16.856 158.89 17.9868 161.3 20.2484C163.711 22.4697 164.916 25.277 164.916 28.6694C164.916 32.9505 162.999 35.9597 159.166 37.6969V37.939C161.339 38.6661 163.078 39.938 164.382 41.7556C165.686 43.5331 166.338 45.5723 166.338 47.8749C166.338 51.429 165.073 54.3774 162.544 56.7202C160.094 59.063 157.071 60.2341 153.475 60.2341H137.293V60.2348ZM142.747 22.1874V35.4558H152.646C154.583 35.4558 156.203 34.7895 157.507 33.4568C158.811 32.0839 159.463 30.5289 159.463 28.7917C159.463 27.0955 158.83 25.5601 157.566 24.1872C156.301 22.8546 154.74 22.1882 152.882 22.1882H142.747V22.1874ZM142.747 40.6658V54.9034H153.713C155.689 54.9034 157.369 54.1968 158.752 52.7829C160.095 51.369 160.767 49.6933 160.767 47.7543C160.767 45.8562 160.076 44.2002 158.693 42.7863C157.309 41.3724 155.571 40.6658 153.477 40.6658H142.747ZM175.511 51.1474C175.511 52.6015 176.104 53.8136 177.29 54.7827C178.515 55.7519 179.938 56.2368 181.558 56.2368C183.85 56.2368 185.885 55.3686 187.663 53.6314C189.481 51.8942 190.389 49.855 190.389 47.5122C188.69 46.1385 186.319 45.4524 183.276 45.4524C181.063 45.4524 179.205 45.9973 177.704 47.0879C176.243 48.1785 175.511 49.5317 175.511 51.1474ZM182.565 29.5786C186.596 29.5786 189.778 30.6897 192.109 32.9111C194.441 35.0923 195.607 38.1014 195.607 41.9386V60.2356H190.39V56.1162H190.153C187.9 59.5086 184.897 61.2056 181.143 61.2056C177.942 61.2056 175.254 60.2364 173.081 58.2973C170.947 56.3583 169.88 53.935 169.88 51.0268C169.88 47.9569 171.006 45.5132 173.258 43.6963C175.551 41.8787 178.594 40.9702 182.387 40.9702C185.628 40.9702 188.296 41.5759 190.389 42.7879V41.5159C190.389 39.5768 189.639 37.9414 188.137 36.6087C186.635 35.2358 184.876 34.549 182.861 34.549C179.818 34.549 177.408 35.8619 175.629 38.487L170.828 35.3975C173.477 31.5177 177.388 29.5786 182.565 29.5786ZM207.21 60.2348H201.757V30.5478H206.973V35.3943H207.21C207.764 33.8188 208.89 32.4861 210.589 31.3955C212.328 30.2647 214.027 29.6993 215.686 29.6993C217.267 29.6993 218.611 29.9414 219.717 30.4264L218.057 35.8186C217.385 35.5355 216.318 35.3943 214.856 35.3943C212.802 35.3943 211.003 36.2428 209.462 37.939C207.96 39.6352 207.209 41.6145 207.209 43.8761V60.2348H207.21ZM234.538 56.1154C237.225 56.1154 239.418 55.1257 241.117 53.1464C242.896 51.1671 243.785 48.5822 243.785 45.3917C243.785 42.2816 242.896 39.7164 241.117 37.6977C239.378 35.6782 237.186 34.668 234.538 34.668C231.929 34.668 229.737 35.6782 227.958 37.6977C226.18 39.7172 225.291 42.2824 225.291 45.3917C225.291 48.542 226.18 51.1072 227.958 53.0857C229.736 55.1052 231.929 56.1154 234.538 56.1154ZM233.648 61.204C229.855 61.204 226.594 59.6694 223.868 56.5996C221.18 53.4895 219.837 49.7533 219.837 45.3909C219.837 41.0286 221.181 37.2924 223.868 34.1823C226.594 31.1124 229.855 29.5779 233.648 29.5779C235.782 29.5779 237.719 30.0423 239.457 30.9712C241.235 31.9002 242.599 33.1319 243.547 34.6672H243.784L243.547 30.5478V16.856H249V60.2348H243.784V56.1154H243.547C242.599 57.6499 241.235 58.8825 239.457 59.8114C237.719 60.7395 235.782 61.204 233.648 61.204Z" fill="#5F6368"/>
<defs>
<radialGradient id="paint0_radial_3385_678" cx="0" cy="0" r="1" gradientUnits="userSpaceOnUse" gradientTransform="translate(104.039 35.024) rotate(79.0985) scale(40.7952 39.9776)">
<stop stop-color="#1BA1E3"/>
<stop offset="0.3002" stop-color="#5489D6"/>
<stop offset="0.5455" stop-color="#9B72CB"/>
<stop offset="0.8254" stop-color="#D96570"/>
<stop offset="1" stop-color="#F49C46"/>
</radialGradient>
<radialGradient id="paint1_radial_3385_678" cx="0" cy="0" r="1" gradientUnits="userSpaceOnUse" gradientTransform="translate(104.038 35.0239) rotate(79.0985) scale(40.7953 39.9776)">
<stop stop-color="#1BA1E3"/>
<stop offset="0.3002" stop-color="#5489D6"/>
<stop offset="0.5455" stop-color="#9B72CB"/>
<stop offset="0.8254" stop-color="#D96570"/>
<stop offset="1" stop-color="#F49C46"/>
</radialGradient>
</defs>
</svg>
