<svg width="224" height="79" viewBox="0 0 224 79" fill="none" xmlns="http://www.w3.org/2000/svg">
<path d="M37.1128 52.4558L33.9906 59.5972C32.7901 62.3423 28.9866 62.3423 27.7862 59.5972L24.6639 52.4558C21.8846 46.1005 16.8835 41.0409 10.6445 38.2763L2.0495 34.467C-0.683167 33.2558 -0.683167 29.2865 2.0495 28.0753L10.3752 24.3842C16.7744 21.5479 21.866 16.3014 24.5968 9.7293L27.7601 2.11814C28.9335 -0.706047 32.8414 -0.706047 34.0157 2.11814L37.179 9.7293C39.9098 16.3014 45.0014 21.5479 51.4006 24.3842L59.7272 28.0753C62.4599 29.2865 62.4599 33.2558 59.7272 34.467L51.1322 38.2772C44.8924 41.0409 39.8912 46.1005 37.1128 52.4558Z" fill="url(#paint0_radial_3322_51)"/>
<path d="M66.1307 74.9748L65.2528 76.9851C64.6097 78.4567 62.5695 78.4567 61.9273 76.9851L61.0494 74.9748C59.4845 71.3916 56.6643 68.5385 53.1468 66.9776L50.4412 65.7776C48.9779 65.1283 48.9779 63.0046 50.4412 62.3562L52.9958 61.2232C56.6046 59.6223 59.4743 56.6632 61.013 52.9581L61.9143 50.786C62.5425 49.2725 64.6386 49.2725 65.2668 50.786L66.1689 52.9581C67.7077 56.6632 70.5774 59.6223 74.1861 61.2232L76.7408 62.3562C78.2041 63.0055 78.2041 65.1293 76.7408 65.7776L74.0352 66.9776C70.5149 68.5376 67.6956 71.3916 66.1307 74.9748Z" fill="url(#paint1_radial_3322_51)"/>
<path d="M88.5391 63.9787V12.8066H107.085C111.143 12.8066 114.628 14.1406 117.54 16.8085C120.452 19.429 121.908 22.7406 121.908 26.7425C121.908 31.7927 119.593 35.3425 114.962 37.3918V37.6773C117.587 38.535 119.688 40.0355 121.263 42.1797C122.838 44.2764 123.626 46.682 123.626 49.3983C123.626 53.5908 122.098 57.069 119.043 59.8327C116.083 62.5964 112.431 63.9778 108.087 63.9778H88.5391V63.9787ZM95.1275 19.0959V34.748H107.086C109.426 34.748 111.383 33.962 112.958 32.3899C114.533 30.7704 115.321 28.9359 115.321 26.8866C115.321 24.8857 114.556 23.0746 113.029 21.455C111.501 19.8829 109.616 19.0969 107.371 19.0969H95.1275V19.0959ZM95.1275 40.8941V57.6894H108.375C110.762 57.6894 112.791 56.8559 114.462 55.188C116.085 53.5201 116.897 51.5434 116.897 49.2559C116.897 47.0169 116.061 45.0634 114.39 43.3955C112.719 41.7276 110.619 40.8941 108.089 40.8941H95.1275ZM134.707 53.2587C134.707 54.9741 135.423 56.4039 136.856 57.5471C138.336 58.6904 140.054 59.2625 142.012 59.2625C144.781 59.2625 147.239 58.2383 149.387 56.189C151.582 54.1397 152.68 51.7341 152.68 48.9704C150.627 47.3499 147.763 46.5406 144.087 46.5406C141.414 46.5406 139.17 47.1834 137.356 48.4699C135.591 49.7564 134.707 51.3527 134.707 53.2587ZM143.229 27.815C148.098 27.815 151.941 29.1257 154.758 31.7462C157.574 34.3192 158.983 37.869 158.983 42.3955V63.9797H152.681V59.1201H152.394C149.673 63.122 146.045 65.1239 141.51 65.1239C137.643 65.1239 134.397 63.9806 131.772 61.6932C129.194 59.4057 127.905 56.5471 127.905 53.1164C127.905 49.495 129.265 46.6122 131.986 44.469C134.755 42.3248 138.431 41.2532 143.013 41.2532C146.928 41.2532 150.151 41.9676 152.68 43.3973V41.8969C152.68 39.6094 151.773 37.6801 149.959 36.108C148.145 34.4885 146.02 33.6783 143.586 33.6783C139.91 33.6783 136.998 35.2271 134.85 38.3239L129.05 34.6792C132.25 30.1025 136.975 27.815 143.229 27.815ZM173 63.9787H166.413V28.9583H172.714V34.6755H173C173.668 32.8169 175.029 31.2448 177.081 29.9583C179.182 28.6243 181.234 27.9573 183.239 27.9573C185.149 27.9573 186.772 28.2429 188.108 28.815L186.103 35.1759C185.292 34.842 184.003 34.6755 182.236 34.6755C179.754 34.6755 177.582 35.6764 175.72 37.6773C173.906 39.6783 172.998 42.0132 172.998 44.6811V63.9787H173ZM206.012 59.1192C209.258 59.1192 211.908 57.9518 213.96 55.6169C216.109 53.282 217.182 50.2327 217.182 46.469C217.182 42.8001 216.109 39.7741 213.96 37.3927C211.86 35.0104 209.211 33.8187 206.012 33.8187C202.861 33.8187 200.212 35.0104 198.064 37.3927C195.916 39.775 194.842 42.8011 194.842 46.469C194.842 50.1852 195.916 53.2113 198.064 55.5453C200.211 57.9276 202.861 59.1192 206.012 59.1192ZM204.937 65.122C200.355 65.122 196.416 63.3118 193.122 59.6904C189.876 56.0215 188.253 51.6141 188.253 46.468C188.253 41.322 189.877 36.9146 193.122 33.2457C196.416 29.6243 200.355 27.8141 204.937 27.8141C207.515 27.8141 209.855 28.362 211.955 29.4578C214.103 30.5536 215.75 32.0066 216.895 33.8178H217.181L216.895 28.9583V12.8066H223.483V63.9787H217.181V59.1192H216.895C215.75 60.9294 214.103 62.3834 211.955 63.4792C209.855 64.5741 207.515 65.122 204.937 65.122Z" fill="#5F6368"/>
<defs>
<radialGradient id="paint0_radial_3322_51" cx="0" cy="0" r="1" gradientUnits="userSpaceOnUse" gradientTransform="translate(48.3676 34.2383) rotate(78.8429) scale(48.1661 48.2515)">
<stop stop-color="#1BA1E3"/>
<stop offset="0.3002" stop-color="#5489D6"/>
<stop offset="0.5455" stop-color="#9B72CB"/>
<stop offset="0.8254" stop-color="#D96570"/>
<stop offset="1" stop-color="#F49C46"/>
</radialGradient>
<radialGradient id="paint1_radial_3322_51" cx="0" cy="0" r="1" gradientUnits="userSpaceOnUse" gradientTransform="translate(48.3681 34.2382) rotate(78.8429) scale(48.1661 48.2515)">
<stop stop-color="#1BA1E3"/>
<stop offset="0.3002" stop-color="#5489D6"/>
<stop offset="0.5455" stop-color="#9B72CB"/>
<stop offset="0.8254" stop-color="#D96570"/>
<stop offset="1" stop-color="#F49C46"/>
</radialGradient>
</defs>
</svg>
