<svg width="50" height="50" viewBox="0 0 50 50" fill="none" xmlns="http://www.w3.org/2000/svg">
<g clip-path="url(#clip0_3349_37)">
<path d="M42.3261 9.1044C39.0846 7.61657 35.6636 6.55563 32.149 5.94816C32.117 5.94191 32.0838 5.94601 32.0542 5.95987C32.0246 5.97372 32.0002 5.99661 31.9845 6.02524C31.547 6.80649 31.0595 7.82524 30.7178 8.62941C26.9291 8.05396 23.0752 8.05396 19.2865 8.62941C18.9063 7.73837 18.4772 6.86899 18.0011 6.02524C17.9847 5.99725 17.9602 5.9749 17.9308 5.96114C17.9014 5.94738 17.8686 5.94285 17.8365 5.94816C14.3216 6.55436 10.9006 7.61535 7.65946 9.1044C7.63202 9.11591 7.60876 9.13554 7.5928 9.16065C1.10946 18.8461 -0.667618 28.2919 0.205298 37.619C0.207419 37.6421 0.21424 37.6646 0.225345 37.685C0.23645 37.7054 0.251604 37.7234 0.269881 37.7377C4.04404 40.534 8.26594 42.6686 12.7553 44.0502C12.7869 44.0594 12.8206 44.0587 12.8519 44.0483C12.8831 44.0379 12.9105 44.0182 12.9303 43.9919C13.8954 42.6804 14.7498 41.2909 15.4845 39.8377C15.4947 39.8178 15.5006 39.796 15.5018 39.7737C15.503 39.7513 15.4994 39.729 15.4914 39.7081C15.4833 39.6873 15.4709 39.6683 15.455 39.6526C15.4391 39.6369 15.42 39.6247 15.399 39.6169C14.052 39.1014 12.7479 38.48 11.499 37.7586C11.4762 37.7453 11.4569 37.7266 11.443 37.7042C11.429 37.6817 11.4209 37.6561 11.4192 37.6297C11.4176 37.6033 11.4225 37.5769 11.4335 37.5529C11.4445 37.5288 11.4613 37.5079 11.4824 37.4919C11.7454 37.2951 12.0038 37.0923 12.2574 36.8836C12.2796 36.8656 12.3063 36.8541 12.3346 36.8504C12.363 36.8467 12.3918 36.851 12.4178 36.8627C20.6011 40.5982 29.4595 40.5982 37.547 36.8627C37.5733 36.8506 37.6025 36.8461 37.6312 36.8498C37.66 36.8535 37.6871 36.8652 37.7095 36.8836C37.9595 37.0877 38.222 37.2961 38.4865 37.4919C38.5074 37.5076 38.524 37.5282 38.5351 37.5518C38.5462 37.5755 38.5514 37.6014 38.5501 37.6275C38.5489 37.6536 38.5413 37.6789 38.5281 37.7014C38.5148 37.7239 38.4963 37.7428 38.474 37.7565C37.228 38.4847 35.9227 39.1064 34.572 39.6148C34.5509 39.6229 34.5318 39.6353 34.5159 39.6512C34.5 39.6671 34.4876 39.6862 34.4795 39.7072C34.4715 39.7283 34.4679 39.7507 34.4691 39.7732C34.4704 39.7957 34.4763 39.8177 34.4865 39.8377C35.2365 41.2919 36.0949 42.6752 37.0386 43.9898C37.058 44.0166 37.0854 44.0366 37.1168 44.0471C37.1481 44.0576 37.182 44.0579 37.2136 44.0482C41.7105 42.6707 45.9392 40.5359 49.7178 37.7357C49.7362 37.7226 49.7516 37.7059 49.7631 37.6865C49.7746 37.6671 49.7819 37.6455 49.7845 37.6232C50.8261 26.8377 48.0386 17.469 42.3907 9.16482C42.3775 9.13682 42.3546 9.11668 42.3261 9.1044ZM16.7074 31.9377C14.2428 31.9377 12.2136 29.6773 12.2136 26.8982C12.2136 24.1211 14.2053 21.8586 16.7074 21.8586C19.2282 21.8586 21.2407 24.1419 21.2011 26.9002C21.2011 29.6773 19.2095 31.9377 16.7074 31.9377ZM33.322 31.9377C30.8574 31.9377 28.8282 29.6773 28.8282 26.8982C28.8282 24.1211 30.8178 21.8586 33.322 21.8586C35.8428 21.8586 37.8553 24.1419 37.8157 26.9002C37.8157 29.6773 35.8449 31.9377 33.322 31.9377Z" fill="black"/>
</g>
<defs>
<clipPath id="clip0_3349_37">
<rect width="50" height="50" fill="white"/>
</clipPath>
</defs>
</svg>
