<svg width="275" height="131" viewBox="0 0 275 131" fill="none" xmlns="http://www.w3.org/2000/svg">
<path d="M149.193 19.9418H151.895L159.509 12.1165L160 8.83495C154.105 3.28155 146 0 137.158 0C121.439 0 107.93 11.1068 104 26C104.737 25.4951 106.702 25.7476 106.702 25.7476L121.93 23.2233C121.93 23.2233 122.667 21.9612 123.158 21.9612C130.035 14.3884 141.333 13.6311 149.193 19.9418Z" fill="#EA4535"/>
<path d="M171.193 25.664C169.182 19.2925 165.663 13.4111 160.385 9L149.326 19.7826C154.102 23.4585 156.615 28.8498 156.615 34.7312V36.6917C161.893 36.6917 166.417 40.8577 166.417 46.249C166.417 51.3953 162.144 55.5613 156.615 55.5613H137.011L135 57.5217V69.0395L137.011 71H156.615C170.69 71 182 59.9723 182 46.249C182 37.917 177.727 30.3202 170.941 25.9091L171.193 25.664Z" fill="#557EBF"/>
<path d="M118.36 71H138V55.7385H118.36C116.849 55.7385 115.59 55.4923 114.331 55L111.561 55.7385L103.755 63.3692L103 65.8308C107.281 69.2769 112.82 71 118.36 71Z" fill="#36A852"/>
<path d="M118.11 21C104.188 21 93 32.1264 93 45.9725C93 53.8846 96.7293 61.3022 102.945 66L114.133 54.8736C110.652 53.1429 108.414 49.9286 108.414 45.9725C108.414 40.7802 112.641 36.3297 118.11 36.3297C121.84 36.5769 125.32 38.8022 126.812 42.0165L138 30.8901C133.525 24.956 126.066 21 118.11 21Z" fill="#F9BC15"/>
<path d="M19.2377 119.5C14.0583 119.5 9.61883 117.5 5.67264 113.75C1.72646 110 0 105.75 0 100.25C0 94.75 1.97309 90.5 5.67264 86.75C9.3722 83 14.0583 81 19.2377 81C23.9238 81.25 28.6099 83 32.0628 86.5L28.3632 90.25C25.8969 87.75 22.6906 86.5 18.991 86.5C15.2915 86.5 12.0852 87.75 9.3722 90.5C6.90583 93 5.42601 96.75 5.67264 100.25C5.67264 104 6.90583 107.5 9.61883 110C12.0852 113 15.5381 114.25 18.991 114.25C22.9372 114.25 25.8969 113 28.6099 110.5C30.0897 109 31.0762 106.75 31.3229 104H19.2377V98.75H36.5022C36.7489 99.75 36.7489 100.75 36.7489 102C36.7489 107.25 35.2691 111.25 32.3094 114.25C28.8565 117.75 24.6637 119.75 19.2377 119.75V119.5ZM59.6861 116C57.2197 118.25 54.5067 119.5 51.0538 119.5C47.6009 119.5 44.6413 118.25 42.4215 116C40.2018 113.75 38.9686 110.75 38.9686 107.25C38.9686 103.75 40.2018 100.75 42.4215 98.5C44.6413 96.25 47.6009 95 51.0538 95C54.5067 95 57.4664 96.25 59.6861 98.5C61.9058 100.75 63.139 103.75 63.139 107.25C63.139 110.75 61.9058 113.75 59.6861 116ZM46.1211 112.5C47.3543 114 49.0807 114.75 50.8072 114.75C52.7803 114.75 54.2601 114 55.7399 112.5C57.2197 111 57.713 109.25 57.713 107.25C57.713 105 56.9731 103.25 55.7399 101.75C54.5067 100.25 52.7803 99.75 50.8072 99.75C49.0807 99.75 47.1076 100.5 45.8744 101.75C44.6413 103.25 43.9013 105 43.9013 107.25C43.9013 109.5 44.6413 111.25 45.8744 112.5H46.1211ZM86.3229 116C83.8565 118.25 81.1435 119.5 77.6906 119.5C74.2377 119.5 71.278 118.25 69.0583 116C66.8386 113.75 65.6054 110.75 65.6054 107.25C65.6054 103.75 66.8386 100.75 69.0583 98.5C71.278 96.25 74.2377 95 77.6906 95C81.1435 95 84.1031 96.25 86.3229 98.5C88.5426 100.75 89.7758 103.75 89.7758 107.25C89.7758 110.75 88.5426 113.75 86.3229 116ZM72.7578 112.5C73.991 114 75.7175 114.75 77.4439 114.75C79.417 114.75 80.8969 114 82.3767 112.5C83.8565 111 84.3498 109.25 84.3498 107.25C84.3498 105 83.6099 103.25 82.3767 101.75C81.1435 100.25 79.417 99.75 77.4439 99.75C75.7175 99.75 73.7444 100.5 72.5112 101.75C71.278 103.25 70.5381 105 70.5381 107.25C70.5381 109.5 71.278 111.25 72.5112 112.5H72.7578ZM103.834 130.5C101.121 130.5 98.9014 129.75 96.9283 128.25C94.9552 126.75 93.722 125 92.9821 123.25L97.6682 121.25C98.1614 122.5 98.9013 123.5 99.8879 124.25C100.874 125 102.108 125.5 103.834 125.5C105.807 125.5 107.534 124.75 108.52 123.75C109.507 122.75 110.247 120.75 110.247 118.25V116.5H110C108.52 118.25 106.3 119.25 103.587 119.25C100.381 119.25 97.6682 118 95.4484 115.75C92.9821 113.75 91.7489 110.5 91.9955 107.25C91.7489 104 92.9821 100.75 95.4484 98.5C97.6682 96 100.381 95 103.587 95C105.067 95 106.3 95.25 107.287 95.75C108.274 96.25 109.26 97 110 97.75H110.247V95.75H115.426V118C115.426 122.25 114.439 125.5 112.22 127.75C110 129.75 107.287 131 103.834 131V130.5ZM104.081 114.5C105.807 114.75 107.534 114 108.52 112.5C109.753 111 110.493 109.25 110.493 107.25C110.493 105 109.753 103.25 108.52 101.75C107.534 100.5 105.807 99.75 104.081 99.75C102.108 99.75 100.628 100.5 99.3946 102C98.1614 103.5 97.4215 105.25 97.4215 107.5C97.4215 109.5 98.1614 111.5 99.3946 112.75C100.628 114 102.354 115 104.081 115V114.5ZM124.305 82.25V118.5H118.879V82.25H124.305ZM138.857 119.25C135.404 119.25 132.444 118 130.224 115.75C128.004 113.5 126.771 110.5 126.771 107C126.771 103.5 128.004 100.5 130.224 98C132.197 96 135.157 94.75 138.363 94.75C139.843 94.75 141.323 95 142.556 95.5C143.543 96.25 144.529 96.75 145.516 97.75C146.256 98.5 146.996 99.25 147.489 100.25C147.982 101 148.475 101.75 148.722 102.75L149.215 104.25L132.937 111C134.17 113.5 136.144 114.75 138.857 114.75C141.323 114.75 143.296 113.5 144.776 111.25L148.969 114C147.982 115.5 146.749 116.75 145.022 117.75C143.296 118.75 141.323 119.5 138.857 119.5V119.25ZM132.197 106.5L143.049 102C142.803 101.25 142.063 100.5 141.323 100C140.336 99.75 139.35 99.5 138.363 99.5C136.883 99.5 135.404 100.25 133.924 101.5C132.444 102.75 131.951 104.5 131.951 106.75L132.197 106.5ZM177.332 119.25C172.399 119.25 168.453 117.5 165 114.25C161.547 111 160.067 106.75 160.067 101.75C160.067 96.75 161.794 92.5 165 89.25C168.206 86 172.399 84.25 177.332 84.25C182.265 84.25 186.457 86 189.417 89.75L186.457 92.75C184.238 90 181.031 88.5 177.332 88.5C173.632 88.5 170.673 89.75 168.206 92.25C165.74 94.75 164.507 98 164.507 102C164.507 106 165.74 109.25 168.206 111.75C170.673 114.25 173.632 115.5 177.332 115.5C181.278 115.5 184.731 114 187.444 110.75L190.404 113.75C188.924 115.5 186.951 117 184.731 118C182.265 119 179.798 119.5 177.332 119.5V119.25ZM198.543 118.5H194.35V85.25H198.543V118.5ZM205.448 98.25C207.668 96 210.381 94.75 213.834 94.75C217.287 94.75 220 96 222.22 98.25C224.439 100.5 225.426 103.5 225.426 107C225.426 110.5 224.439 113.5 222.22 115.75C220 118 217.287 119.25 213.834 119.25C210.381 119.25 207.668 118 205.448 115.75C203.229 113.5 202.242 110.5 202.242 107C202.242 103.5 203.229 100.5 205.448 98.25ZM208.655 113C210.135 114.5 211.861 115.25 213.834 115.25C215.807 115.25 217.534 114.5 219.013 113C220.493 111.5 221.233 109.5 221.233 107C221.233 104.5 220.493 102.5 219.013 101C217.534 99.5 215.807 98.75 213.834 98.75C211.861 98.75 210.135 99.5 208.655 101C207.175 102.5 206.435 104.5 206.435 107C206.435 109.5 207.175 111.5 208.655 113ZM248.857 118.5H244.91V115.25H244.664C243.924 116.25 242.937 117.25 241.704 118C240.471 118.75 238.991 119.25 237.511 119.25C234.798 119.25 232.578 118.5 231.099 116.75C229.619 115 228.879 112.75 228.879 109.75V95.75H233.072V109C233.072 113.25 235.045 115.5 238.744 115.5C240.224 115.5 241.951 114.75 242.937 113.5C243.924 112 244.417 110.25 244.417 108.5V96H248.61V119L248.857 118.5ZM263.161 119.25C260.202 119.25 257.735 118 255.516 115.75C253.296 113.5 252.309 110.5 252.309 107C252.309 103.5 253.296 100.75 255.516 98.25C257.735 95.75 260.202 94.75 263.161 94.75C264.888 94.75 266.368 95.25 267.848 95.75C269.327 96.25 270.314 97.5 270.807 98.5H271.054L270.807 95.25V84.75H275V118.25H271.054V115H270.807C270.067 116 269.081 117 267.848 117.75C266.368 118.5 264.888 118.75 263.161 118.75V119.25ZM263.901 115.25C265.628 115.5 267.601 114.75 268.834 113.25C270.314 111.75 270.807 109.75 270.807 107.25C270.807 104.75 270.067 102.75 268.834 101.25C267.601 100 265.628 99 263.901 99C261.928 99 260.202 99.75 258.722 101.25C257.242 102.75 256.502 104.75 256.502 107.25C256.502 109.75 257.242 111.75 258.722 113.25C259.955 114.75 261.928 115.75 263.901 115.75V115.25Z" fill="#5F6368"/>
</svg>
