<svg width="924" height="146" viewBox="0 0 924 146" fill="none" xmlns="http://www.w3.org/2000/svg">
<path d="M109.042 38.6172H114.26L129.133 23.7441L129.862 17.4272C102.181 -7.00865 59.9341 -4.36888 35.4983 23.3127C28.7088 30.9958 23.7888 40.1477 21.0977 50.0493C22.7514 49.3714 24.59 49.2584 26.3156 49.7412L56.0617 44.8314C56.0617 44.8314 57.5716 42.3252 58.3625 42.4793C71.5922 27.9452 93.8607 26.2504 109.145 38.6172H109.042Z" fill="#EA4335"/>
<path d="M150.323 50.0498C146.903 37.457 139.888 26.1378 130.13 17.4893L109.258 38.3609C118.071 45.5612 123.094 56.4181 122.878 67.7989V71.5069C133.139 71.5069 141.459 79.8268 141.459 90.088C141.459 100.349 133.139 108.669 122.878 108.669H85.7158L82.0078 112.428V134.717L85.7158 138.425H122.878C149.563 138.631 171.37 117.164 171.575 90.4783C171.698 74.2699 163.717 59.1092 150.323 50.0498Z" fill="#4285F4"/>
<path d="M48.501 138.189H85.6632V108.443H48.501C45.851 108.443 43.242 107.868 40.8283 106.769L35.6104 108.391L20.6346 123.265L19.3301 128.482C27.7219 134.83 37.9728 138.24 48.501 138.189Z" fill="#34A853"/>
<path d="M48.5014 41.6986C21.8059 41.8527 0.307689 63.6179 0.46176 90.3135C0.554204 105.217 7.50799 119.248 19.3304 128.328L40.88 106.779C31.5329 102.557 27.373 91.5461 31.5946 82.199C35.8161 72.852 46.8272 68.692 56.1742 72.9136C60.293 74.7728 63.5902 78.0802 65.4596 82.199L87.0091 60.6495C77.847 48.6524 63.5902 41.637 48.5014 41.6986Z" fill="#FBBC05"/>
<path d="M270.509 117.42C257.577 117.584 245.149 112.479 236.069 103.276C226.691 94.463 221.453 82.1167 221.617 69.2466C221.463 56.3764 226.701 44.0404 236.069 35.2172C245.108 25.9215 257.547 20.7139 270.509 20.8166C282.856 20.6522 294.76 25.449 303.542 34.1284L294.257 43.5782C287.899 37.4255 279.353 34.0565 270.509 34.1798C261.234 34.0668 252.329 37.857 245.981 44.6156C239.387 51.1585 235.751 60.1152 235.905 69.4006C235.822 78.5833 239.459 87.4065 245.981 93.8775C259.416 107.272 281.079 107.528 294.832 94.4527C298.93 89.9744 301.437 84.2634 301.981 78.2238H270.663V64.8709H314.974C315.406 67.562 315.58 70.284 315.498 73.0162C316.053 84.4072 311.924 95.5312 304.066 103.81C295.325 112.9 283.123 117.851 270.509 117.42ZM373.532 108.545C361.175 120.388 341.68 120.388 329.324 108.545C323.335 102.742 320.069 94.6992 320.295 86.3691C320.069 78.0389 323.346 69.9964 329.324 64.193C341.69 52.3808 361.165 52.3808 373.532 64.193C379.51 69.9964 382.787 78.0389 382.561 86.3691C382.776 94.7095 379.479 102.752 373.481 108.545H373.532ZM339.081 99.835C345.46 106.655 356.163 107.004 362.983 100.616C363.25 100.359 363.517 100.102 363.764 99.835C367.246 96.2297 369.126 91.3816 368.982 86.3691C369.136 81.3463 367.256 76.4674 363.764 72.8518C357.2 66.011 346.333 65.7748 339.482 72.3383C339.307 72.5026 339.133 72.6772 338.969 72.8518C335.476 76.4674 333.597 81.3463 333.751 86.3691C333.617 91.3816 335.517 96.24 339.02 99.835H339.081ZM441.478 108.545C429.121 120.388 409.626 120.388 397.269 108.545C391.281 102.742 388.015 94.6992 388.241 86.3691C388.015 78.0389 391.291 69.9964 397.269 64.193C409.626 52.35 429.121 52.35 441.478 64.193C447.456 69.9964 450.732 78.0389 450.506 86.3691C450.743 94.6992 447.466 102.742 441.478 108.545ZM407.038 99.835C413.416 106.655 424.119 107.004 430.939 100.616C431.206 100.359 431.473 100.102 431.72 99.835C435.202 96.2297 437.082 91.3816 436.938 86.3691C437.092 81.3463 435.212 76.4674 431.72 72.8518C425.156 66.011 414.289 65.7748 407.448 72.3383C407.274 72.5026 407.099 72.6772 406.935 72.8518C403.443 76.4674 401.563 81.3463 401.717 86.3691C401.583 91.3816 403.484 96.24 406.986 99.835H407.038ZM486.148 145.286C479.893 145.481 473.761 143.53 468.769 139.75C464.339 136.418 460.85 131.995 458.641 126.911L470.536 121.949C471.83 124.99 473.853 127.66 476.432 129.725C479.184 131.944 482.646 133.115 486.189 133.012C490.729 133.289 495.167 131.574 498.351 128.318C501.494 124.528 503.045 119.659 502.685 114.749V110.261H502.213C498.176 115.047 492.126 117.656 485.881 117.307C477.962 117.327 470.392 114.04 465.01 108.227C459.176 102.464 455.95 94.5657 456.084 86.3588C455.94 78.1108 459.165 70.1607 465.01 64.3368C470.382 58.5026 477.952 55.1849 485.881 55.2055C489.199 55.1952 492.486 55.9347 495.485 57.3419C498.084 58.4718 500.395 60.1666 502.275 62.303H502.747V57.3419H515.689V112.921C516.377 121.806 513.378 130.588 507.39 137.192C501.689 142.646 494.037 145.564 486.148 145.286ZM487.093 105.207C491.603 105.31 495.927 103.389 498.885 99.9891C502.1 96.3016 503.805 91.5254 503.63 86.6259C503.826 81.6442 502.131 76.7858 498.885 73.0059C495.927 69.5958 491.603 67.6853 487.093 67.788C482.461 67.6956 478.013 69.5958 474.881 73.0059C471.429 76.6523 469.55 81.5107 469.663 86.5232C469.56 91.4945 471.429 96.3016 474.881 99.8863C477.993 103.327 482.44 105.269 487.093 105.207ZM538.707 24.3192V115.54H525.087V24.3192H538.707ZM576.075 117.42C567.827 117.635 559.867 114.4 554.104 108.494C548.26 102.639 545.066 94.6376 545.281 86.3691C544.973 78.08 548.044 70.0169 553.786 64.0286C559.209 58.3177 566.79 55.1541 574.658 55.3082C578.242 55.2671 581.786 55.9655 585.093 57.3419C588.072 58.5437 590.784 60.3206 593.074 62.5598C595.046 64.46 596.793 66.576 598.292 68.8768C599.504 70.8181 600.531 72.8621 601.374 74.978L602.781 78.532L561.038 95.7058C563.626 101.643 569.594 105.382 576.065 105.104C582.32 105.125 588.123 101.848 591.359 96.4967L601.795 103.543C599.132 107.357 595.722 110.59 591.77 113.044C587.086 116.002 581.622 117.522 576.075 117.42ZM558.644 85.4241L586.408 73.8893C585.556 71.8555 584.025 70.1813 582.074 69.1438C579.896 67.9113 577.431 67.2847 574.925 67.3155C570.682 67.4285 566.646 69.2055 563.708 72.2766C560.144 75.6868 558.285 80.5041 558.644 85.4241Z" fill="#5F6368"/>
<path d="M674.137 117.42C650.39 117.831 630.812 98.9106 630.401 75.163C630.391 74.5878 630.391 74.0023 630.412 73.4271C629.857 49.6795 648.664 29.9891 672.401 29.4344C672.976 29.4242 673.562 29.4242 674.137 29.4242C686.011 29.0544 697.412 34.1285 705.085 43.1982L697.566 50.5012C691.927 43.4036 683.238 39.4286 674.189 39.7983C665.509 39.6032 657.117 42.962 650.965 49.0838C644.566 55.524 641.145 64.3369 641.515 73.4066C641.135 82.4763 644.566 91.2892 650.965 97.7294C657.117 103.861 665.509 107.21 674.189 107.015C684.296 107.128 693.9 102.629 700.278 94.802L707.797 102.321C703.863 107.025 698.922 110.784 693.345 113.332C687.326 116.126 680.762 117.523 674.137 117.42Z" fill="#5F6368"/>
<path d="M727.991 115.541H717.186V31.2529H727.991V115.541Z" fill="#5F6368"/>
<path d="M745.636 64.8096C757.418 53.1104 776.44 53.1104 788.222 64.8096C793.809 70.7156 796.819 78.6041 796.572 86.7289C796.819 94.8536 793.809 102.742 788.222 108.648C776.44 120.347 757.418 120.347 745.636 108.648C740.049 102.742 737.039 94.8536 737.286 86.7289C737.039 78.6041 740.038 70.7156 745.636 64.8096ZM753.669 101.869C760.581 109.172 772.106 109.49 779.419 102.578C779.666 102.352 779.902 102.105 780.128 101.869C783.939 97.781 785.952 92.3268 785.716 86.7391C785.962 81.1515 783.949 75.6973 780.128 71.6093C773.215 64.3063 761.691 63.9878 754.377 70.9005C754.131 71.1265 753.895 71.373 753.669 71.6093C749.858 75.6973 747.845 81.1515 748.081 86.7391C747.865 92.3165 749.899 97.7501 753.72 101.818L753.669 101.869Z" fill="#5F6368"/>
<path d="M856.424 115.54H845.988V107.559H845.68C843.821 110.59 841.191 113.075 838.059 114.76C834.813 116.639 831.115 117.636 827.356 117.625C821.172 118.047 815.143 115.623 810.973 111.052C807.018 106.05 805.036 99.7737 805.385 93.4156V57.9277H816.191V91.4333C816.191 102.187 820.936 107.559 830.437 107.559C834.72 107.693 838.798 105.752 841.397 102.342C844.201 98.7979 845.69 94.3914 845.629 89.872V57.9277H856.434V115.54H856.424Z" fill="#5F6368"/>
<path d="M893.115 117.42C885.699 117.441 878.642 114.226 873.804 108.597C868.391 102.619 865.495 94.7922 865.71 86.7291C865.495 78.666 868.391 70.8392 873.804 64.8612C878.642 59.2427 885.699 56.0174 893.115 56.038C897.223 55.9763 901.281 56.9419 904.906 58.8524C908.101 60.4547 910.802 62.889 912.733 65.8986H913.206L912.733 57.9177V31.2529H923.539V115.541H913.103V107.56H912.63C910.699 110.569 907.998 113.004 904.804 114.606C901.209 116.496 897.192 117.472 893.115 117.42ZM894.892 107.56C899.832 107.632 904.567 105.577 907.885 101.921C911.552 97.7401 913.432 92.286 913.103 86.7291C913.432 81.1825 911.552 75.7181 907.885 71.5376C901.332 64.327 890.177 63.8032 882.967 70.3667C882.556 70.7364 882.165 71.137 881.796 71.5376C878.118 75.6873 876.239 81.1312 876.578 86.6675C876.239 92.2038 878.118 97.6477 881.796 101.797C885.124 105.536 889.9 107.632 894.892 107.56Z" fill="#5F6368"/>
</svg>
