<svg width="50" height="50" viewBox="0 0 50 50" fill="none" xmlns="http://www.w3.org/2000/svg">
<path d="M24.9999 4.68115C20.0528 4.68104 15.2672 6.44132 11.4994 9.647C7.73153 12.8527 5.22737 17.2945 4.43502 22.1777C3.64267 27.0608 4.61384 32.0666 7.17474 36.2992C9.73563 40.5318 13.7191 43.7149 18.4124 45.2791C19.454 45.4624 19.8436 44.8374 19.8436 44.2895C19.8436 43.7957 19.8186 42.1541 19.8186 40.4103C14.5832 41.3728 13.229 39.1332 12.8124 37.9624C12.3502 36.8223 11.6172 35.8119 10.6769 35.0187C9.94778 34.6291 8.90611 33.6645 10.6499 33.6395C11.3163 33.7116 11.9555 33.9433 12.5133 34.3151C13.0711 34.6868 13.531 35.1876 13.854 35.7749C14.1389 36.2867 14.5219 36.7373 14.9812 37.1008C15.4406 37.4644 15.9671 37.7337 16.5307 37.8933C17.0942 38.053 17.6838 38.0999 18.2655 38.0313C18.8472 37.9627 19.4097 37.78 19.9207 37.4937C20.0109 36.434 20.4833 35.4433 21.2499 34.7062C16.6144 34.1853 11.7707 32.3895 11.7707 24.4207C11.7412 22.3499 12.5052 20.3462 13.9061 18.8207C13.2693 17.0212 13.3438 15.0463 14.1144 13.2999C14.1144 13.2999 15.8582 12.7541 19.8436 15.4353C23.2525 14.4977 26.8513 14.4977 30.2603 15.4353C34.2436 12.727 35.9894 13.2999 35.9894 13.2999C36.7603 15.0463 36.8348 17.0212 36.1978 18.8207C37.6029 20.3436 38.3676 22.349 38.3332 24.4207C38.3332 32.4145 33.4624 34.1853 28.8269 34.7062C29.3241 35.2101 29.7071 35.8151 29.9497 36.4801C30.1924 37.1452 30.289 37.8546 30.2332 38.5603C30.2332 41.3478 30.2082 43.5874 30.2082 44.2895C30.2082 44.8374 30.5978 45.4874 31.6394 45.2791C36.324 43.7018 40.2957 40.5111 42.8453 36.2765C45.395 32.0418 46.3568 27.0389 45.559 22.1607C44.7612 17.2825 42.2557 12.8466 38.4899 9.64486C34.724 6.44309 29.9428 4.68384 24.9999 4.68115Z" fill="black"/>
</svg>
