<svg width="147" height="67" viewBox="0 0 147 67" fill="none" xmlns="http://www.w3.org/2000/svg">
<path d="M73.6 53.51C72.3533 55.71 70.6667 57.4883 68.54 58.845C66.45 60.2017 63.8833 60.88 60.84 60.88C58.7867 60.88 56.88 60.5317 55.12 59.835C53.3967 59.1017 51.8933 58.0933 50.61 56.81C49.3267 55.5267 48.3183 54.0233 47.585 52.3C46.8883 50.54 46.54 48.615 46.54 46.525C46.54 44.5817 46.8883 42.7483 47.585 41.025C48.2817 39.265 49.2533 37.7433 50.5 36.46C51.7467 35.14 53.2133 34.095 54.9 33.325C56.6233 32.555 58.5117 32.17 60.565 32.17C62.7283 32.17 64.6533 32.5367 66.34 33.27C68.0267 33.9667 69.4383 34.9567 70.575 36.24C71.7117 37.4867 72.5733 38.9717 73.16 40.695C73.7467 42.4183 74.04 44.2883 74.04 46.305C74.04 46.5617 74.04 46.7817 74.04 46.965C74.0033 47.185 73.985 47.3867 73.985 47.57C73.9483 47.7533 73.93 47.955 73.93 48.175H53.635C53.7817 49.275 54.075 50.2283 54.515 51.035C54.9917 51.805 55.56 52.465 56.22 53.015C56.9167 53.5283 57.6683 53.9133 58.475 54.17C59.2817 54.39 60.1067 54.5 60.95 54.5C62.6 54.5 63.9567 54.1333 65.02 53.4C66.12 52.63 66.9817 51.6767 67.605 50.54L73.6 53.51ZM67.055 43.06C67.0183 42.5833 66.8533 42.0517 66.56 41.465C66.3033 40.8783 65.9 40.3283 65.35 39.815C64.8367 39.3017 64.1767 38.88 63.37 38.55C62.6 38.22 61.665 38.055 60.565 38.055C59.025 38.055 57.6683 38.495 56.495 39.375C55.3217 40.255 54.4967 41.4833 54.02 43.06H67.055ZM78.6415 33.05H85.4065V36.79H85.8465C86.1765 36.13 86.6165 35.525 87.1665 34.975C87.7165 34.425 88.3215 33.9483 88.9815 33.545C89.6782 33.1417 90.4115 32.83 91.1815 32.61C91.9882 32.39 92.7765 32.28 93.5465 32.28C94.4999 32.28 95.3065 32.3717 95.9665 32.555C96.6632 32.7383 97.2499 32.9767 97.7265 33.27L95.8015 39.815C95.3615 39.595 94.8665 39.43 94.3165 39.32C93.8032 39.1733 93.1615 39.1 92.3915 39.1C91.4015 39.1 90.5032 39.3017 89.6965 39.705C88.8899 40.0717 88.1932 40.6033 87.6065 41.3C87.0565 41.9967 86.6165 42.8217 86.2865 43.775C85.9932 44.6917 85.8465 45.7 85.8465 46.8V60H78.6415V33.05ZM107.804 36.57H108.244C109.087 35.2133 110.224 34.15 111.654 33.38C113.084 32.5733 114.716 32.17 116.549 32.17C118.236 32.17 119.721 32.445 121.004 32.995C122.287 33.545 123.332 34.3333 124.139 35.36C124.982 36.35 125.606 37.56 126.009 38.99C126.449 40.3833 126.669 41.9417 126.669 43.665V60H119.464V44.545C119.464 42.6017 119.024 41.1717 118.144 40.255C117.301 39.3017 116.054 38.825 114.404 38.825C113.414 38.825 112.534 39.045 111.764 39.485C111.031 39.8883 110.389 40.4567 109.839 41.19C109.326 41.8867 108.922 42.73 108.629 43.72C108.372 44.6733 108.244 45.7 108.244 46.8V60H101.039V33.05H107.804V36.57Z" fill="black"/>
<mask id="mask0_2947_56" style="mask-type:luminance" maskUnits="userSpaceOnUse" x="0" y="42" width="43" height="19">
<path d="M42.863 42.9105H0V60.6666H42.863V42.9105Z" fill="white"/>
</mask>
<g mask="url(#mask0_2947_56)">
<path d="M10.814 -6.00171C12.6075 -6.00171 14.0612 -4.34552 14.0612 -2.30252V43.3306C14.0612 45.3737 15.5151 47.0298 17.3084 47.0298H39.4102C41.2036 47.0298 42.6574 48.686 42.6574 50.729V56.9673C42.6574 59.0104 41.2036 60.6665 39.4102 60.6665H3.34291C1.54952 60.6665 0.0957031 59.0104 0.0957031 56.9673V-2.30253C0.0957031 -4.34553 1.54952 -6.00171 3.3429 -6.00171H10.814Z" fill="#00C6BA"/>
</g>
<mask id="mask1_2947_56" style="mask-type:luminance" maskUnits="userSpaceOnUse" x="0" y="0" width="43" height="24">
<path d="M42.863 0H0V23.6748H42.863V0Z" fill="white"/>
</mask>
<g mask="url(#mask1_2947_56)">
<path d="M7.07846 0.65686C10.935 0.65686 14.0612 4.21832 14.0612 8.61156V37.412C14.0612 46.4012 20.4581 53.6884 28.3489 53.6884H36.6721C39.9777 53.6884 42.6574 56.7411 42.6574 60.5067C42.6574 64.2724 39.9777 67.3251 36.6721 67.3251H14.3834C6.49251 67.3251 0.0957031 60.0379 0.0957031 51.0486V8.61156C0.0957031 4.21831 3.22199 0.65686 7.07846 0.65686Z" fill="#369FFF"/>
</g>
<mask id="mask2_2947_56" style="mask-type:luminance" maskUnits="userSpaceOnUse" x="0" y="22" width="43" height="21">
<path d="M42.863 22.1951H0V43H42.863V22.1951Z" fill="white"/>
</mask>
<g mask="url(#mask2_2947_56)">
<path d="M14.0612 -3.54236V46.1675H42.6574V58.9501H0.0957031V-3.54236H14.0612Z" fill="#FB8D93"/>
</g>
</svg>
