<svg width="383" height="101" viewBox="0 0 383 101" fill="none" xmlns="http://www.w3.org/2000/svg">
<g clip-path="url(#clip0_3322_52)">
<path d="M29.6892 10.332C25.7994 5.71591 22.4489 1.02801 21.7652 0.053923C21.7489 0.0368803 21.7293 0.0233149 21.7077 0.0140467C21.686 0.00477851 21.6627 0 21.6391 0C21.6155 0 21.5922 0.00477851 21.5706 0.0140467C21.5489 0.0233149 21.5293 0.0368803 21.5131 0.053923C20.8286 1.02801 17.4788 5.71591 13.589 10.332C-19.8001 52.9211 18.8478 81.6619 18.8478 81.6619L19.1717 81.8789C19.4597 86.3139 20.18 92.6971 20.18 92.6971H23.0615C23.0615 92.6971 23.7819 86.3498 24.0699 81.8789L24.3945 81.626C24.4304 81.6619 63.0775 52.9211 29.6892 10.332ZM21.6208 81.0133C21.6208 81.0133 19.892 79.5342 19.4238 78.7778V78.7052L21.5131 32.3298C21.5131 32.1854 21.7293 32.1854 21.7293 32.3298L23.8178 78.7052V78.7778C23.3495 79.5342 21.6208 81.0133 21.6208 81.0133Z" fill="#01EC64"/>
<path d="M93.9477 71.5497L77.8423 32.2098L77.8071 32.1013H65.2773V34.7453H67.2985C67.9127 34.7453 68.4902 34.9997 68.9241 35.4336C69.3572 35.8683 69.5741 36.4481 69.5741 37.0645L69.2128 76.6565C69.2128 77.8887 68.2022 78.9025 66.9739 78.9392L64.916 78.9751V81.5831H77.1211V78.9751L75.8569 78.9392C74.6294 78.9025 73.618 77.8887 73.618 76.6573V39.3449L91.1672 81.5824C91.4201 82.1981 91.9976 82.5968 92.6484 82.5968C93.2977 82.5968 93.8752 82.1981 94.128 81.5824L111.281 40.2868L111.534 76.6565C111.534 77.9239 110.522 78.9384 109.258 78.9743H107.958V81.5824H122.258V78.9743H120.307C119.081 78.9743 118.068 77.9239 118.033 76.6925L117.924 37.099C117.924 36.4976 118.157 35.9195 118.575 35.487C118.992 35.0545 119.562 34.8014 120.163 34.7812L122.258 34.7445V32.1006H110.052L93.947 71.5489L93.9477 71.5497ZM206.239 78.286C205.841 77.8873 205.624 77.3433 205.624 76.6895V57.2406C205.624 53.5395 204.538 50.636 202.366 48.5681C200.229 46.4994 197.261 45.4475 193.569 45.4475C188.391 45.4475 184.301 47.5521 181.44 51.6886C181.404 51.7612 181.296 51.7978 181.187 51.7978C181.078 51.7978 181.006 51.7245 181.006 51.616L179.666 46.4269H177.422L171.665 49.7292V51.5435H173.149C173.838 51.5435 174.417 51.7245 174.815 52.0881C175.213 52.451 175.43 52.9949 175.43 53.7565V76.6536C175.43 77.3067 175.213 77.8513 174.815 78.2509C174.417 78.6496 173.874 78.8673 173.222 78.8673H171.774V81.5158H185.024V78.8673H183.576C182.924 78.8673 182.381 78.6496 181.983 78.2509C181.585 77.8513 181.367 77.3067 181.367 76.6536V61.4856C181.367 59.5629 181.802 57.6394 182.599 55.7518C183.431 53.9016 184.662 52.341 186.291 51.1432C187.92 49.9462 189.876 49.3656 192.12 49.3656C194.654 49.3656 196.573 50.1639 197.768 51.7604C198.962 53.357 199.578 55.4256 199.578 57.893V76.6169C199.578 77.27 199.361 77.8139 198.962 78.2134C198.564 78.613 198.021 78.8299 197.369 78.8299H195.921V81.4791H209.172V78.8307H207.724C207.181 78.9032 206.674 78.6855 206.239 78.286ZM327.298 35.0633C323.636 33.1128 319.542 32.1006 315.125 32.1006H297.89V34.7378H299.577C300.223 34.7378 300.798 34.9907 301.372 35.5683C301.911 36.1107 302.198 36.7249 302.198 37.375V76.2413C302.198 76.8922 301.911 77.5057 301.372 78.0481C300.834 78.5898 300.223 78.8786 299.577 78.8786H297.889V81.5158H315.125C319.542 81.5158 323.636 80.5043 327.298 78.5531C330.96 76.6027 333.941 73.7126 336.095 70.0287C338.25 66.3448 339.363 61.9016 339.363 56.8441C339.363 51.7874 338.25 47.38 336.096 43.6602C333.905 39.9038 330.96 37.0496 327.298 35.0633ZM332.433 56.7723C332.433 61.3958 331.607 65.2967 329.991 68.4396C328.375 71.5819 326.221 73.9296 323.564 75.4475C320.907 76.964 317.962 77.7227 314.802 77.7227H311.319C310.673 77.7227 310.098 77.4698 309.524 76.8922C308.985 76.3498 308.698 75.7363 308.698 75.0862V38.4224C308.698 37.7715 308.949 37.1947 309.524 36.6164C310.062 36.0747 310.673 35.786 311.319 35.786H314.802C317.962 35.786 320.906 36.5438 323.564 38.0611C326.221 39.5783 328.375 41.926 329.991 45.069C331.607 48.2471 332.433 52.1846 332.433 56.7723ZM380.105 59.4095C378.511 57.5668 375.434 56.0136 371.816 55.1825C376.812 52.6904 379.379 49.1868 379.379 44.671C379.379 42.2155 378.731 40.0115 377.425 38.1337C376.124 36.2558 374.276 34.7378 371.925 33.6904C369.57 32.643 366.819 32.1013 363.706 32.1013H344.196V34.7378H345.752C346.404 34.7378 346.984 34.9907 347.563 35.5683C348.106 36.1107 348.395 36.7249 348.395 37.375V76.2413C348.395 76.8922 348.106 77.5057 347.563 78.0481C347.019 78.5898 346.404 78.8786 345.752 78.8786H344.051V81.5158H365.228C368.449 81.5158 371.452 80.9741 374.168 79.89C376.884 78.8067 379.055 77.2169 380.613 75.1221C382.204 73.0273 383.001 70.4619 383.001 67.5C382.965 64.3218 382.023 61.612 380.105 59.4095ZM355.816 76.9281C355.273 76.3865 354.983 75.7722 354.983 75.1221V57.6745H365.047C368.592 57.6745 371.308 58.5775 373.191 60.3828C375.073 62.1896 376.015 64.5373 376.015 67.4274C376.015 69.1609 375.578 70.8592 374.785 72.4123C373.951 74.0014 372.718 75.2657 371.056 76.2413C369.425 77.2162 367.398 77.7227 365.047 77.7227H357.625C356.974 77.7227 356.394 77.469 355.815 76.9274L355.816 76.9281ZM355.02 53.9547V38.4583C355.02 37.8082 355.273 37.2306 355.852 36.6523C356.395 36.1107 357.01 35.8219 357.662 35.8219H362.44C365.877 35.8219 368.413 36.689 370.007 38.3506C371.597 40.0482 372.394 42.2155 372.394 44.8879C372.394 47.6336 371.633 49.8369 370.151 51.4986C368.665 53.1235 366.422 53.9547 363.454 53.9547H355.02ZM155.796 47.7503C153.03 46.2391 149.941 45.4461 146.6 45.4461C143.347 45.4461 140.299 46.1635 137.62 47.6306L137.404 47.7503C134.638 49.2624 132.447 51.4582 130.83 54.2301C129.214 57.0019 128.388 60.2422 128.388 63.8415C128.388 67.4416 129.214 70.6818 130.83 73.4537C132.447 76.2256 134.638 78.4214 137.404 79.9327C140.17 81.4447 143.26 82.237 146.6 82.237C149.853 82.237 152.901 81.5203 155.579 80.0539L155.796 79.9334C158.562 78.4214 160.754 76.2256 162.37 73.4537C163.986 70.6818 164.812 67.4416 164.812 63.8415C164.812 60.2422 163.986 57.0019 162.37 54.2301C160.754 51.4582 158.563 49.2616 155.796 47.7503ZM158.454 63.8415C158.454 68.2698 157.377 71.8692 155.221 74.4615C153.102 77.0531 150.193 78.3848 146.6 78.3848C143.072 78.3848 140.202 77.1002 138.093 74.5991L137.979 74.4615C135.823 71.8692 134.745 68.2698 134.745 63.8415C134.745 59.4948 135.785 55.9456 137.863 53.3645L137.979 53.2223C140.098 50.6307 143.008 49.2983 146.6 49.2983C150.193 49.2983 153.102 50.63 155.221 53.2223C157.377 55.8146 158.454 59.414 158.454 63.8415ZM283.102 47.7503C280.336 46.2391 277.247 45.4461 273.906 45.4461C270.654 45.4461 267.605 46.1635 264.927 47.6306L264.71 47.7503C261.944 49.2624 259.753 51.4582 258.137 54.2301C256.52 57.0019 255.693 60.2422 255.693 63.8415C255.693 67.4416 256.52 70.6818 258.137 73.4537C259.752 76.2256 261.944 78.4214 264.71 79.9327C267.476 81.4447 270.565 82.237 273.906 82.237C277.159 82.237 280.208 81.5203 282.886 80.0539L283.103 79.9334C285.868 78.4214 288.059 76.2256 289.676 73.4537C291.292 70.6818 292.118 67.4416 292.118 63.8415C292.118 60.2422 291.292 57.0019 289.676 54.2301C288.06 51.4582 285.832 49.2616 283.102 47.7503ZM285.76 63.8415C285.76 68.2698 284.682 71.8692 282.527 74.4615C280.407 77.0531 277.498 78.3848 273.906 78.3848C270.378 78.3848 267.508 77.1002 265.399 74.5991L265.285 74.4615C263.13 71.8692 262.052 68.2698 262.052 63.8415C262.052 59.4589 263.091 55.9441 265.168 53.3645L265.285 53.2223C267.404 50.6307 270.314 49.2983 273.906 49.2983C277.498 49.2983 280.407 50.63 282.527 53.2223C284.647 55.8146 285.76 59.414 285.76 63.8415ZM231.762 45.4468C228.867 45.4468 226.226 46.061 223.839 47.291C221.451 48.5202 219.569 50.1841 218.231 52.3178C216.9 54.3882 216.196 56.7998 216.206 59.2614C216.206 61.5036 216.712 63.5647 217.761 65.4096C218.774 67.1813 220.148 68.6641 221.885 69.8933L216.712 76.9094C216.061 77.7773 215.989 78.9347 216.458 79.8751C216.965 80.8514 217.906 81.4297 218.991 81.4297H220.475C219.088 82.3657 217.966 83.4677 217.175 84.7665L217.073 84.9378C216.133 86.4925 215.662 88.1204 215.662 89.7836C215.662 92.8382 216.989 95.37 219.606 97.2748L219.751 97.378C222.429 99.2948 226.19 100.271 230.929 100.271C234.221 100.271 237.369 99.7287 240.228 98.6798C243.039 97.6616 245.337 96.1645 247.059 94.2238L247.208 94.0517C248.981 92.0258 249.886 89.5666 249.886 86.7461C249.886 83.7804 248.801 81.6826 246.269 79.6581C244.098 77.9583 240.697 77.0546 236.464 77.0546H221.994C221.973 77.0527 221.953 77.0443 221.936 77.0306L221.921 77.0179L221.915 77.0029C221.907 76.9798 221.895 76.9356 221.921 76.9094L225.684 71.8467C226.575 72.2619 227.509 72.577 228.47 72.7864C229.337 72.9674 230.314 73.04 231.4 73.04C234.438 73.04 237.188 72.425 239.576 71.1958C241.964 69.9659 243.881 68.3027 245.256 66.1683C246.63 64.0712 247.318 61.7205 247.318 59.2254C247.318 56.5493 246.016 51.6669 242.47 49.1718C242.47 49.1494 242.483 49.1412 242.493 49.1374L242.506 49.1352L250.284 50.003V46.4231H237.839C235.886 45.8082 233.859 45.4468 231.762 45.4468ZM236.103 68.0858C234.728 68.8085 233.245 69.2065 231.762 69.2065C229.338 69.2065 227.203 68.3386 225.395 66.6388C223.586 64.9391 222.681 62.444 222.681 59.2614C222.681 56.0787 223.586 53.5829 225.395 51.8839C227.203 50.1841 229.337 49.3162 231.762 49.3162C233.218 49.3162 234.607 49.6484 235.931 50.3442L236.103 50.4369C237.478 51.1604 238.599 52.2819 239.503 53.7647C240.371 55.2475 240.842 57.0917 240.842 59.2614C240.842 61.4676 240.408 63.3118 239.503 64.758C238.636 66.2408 237.478 67.3623 236.103 68.0858ZM226.299 81.3938H236.103C238.816 81.3938 240.553 81.9362 241.71 83.0936C242.868 84.251 243.446 85.8057 243.446 87.6139C243.446 90.2541 242.398 92.4245 240.299 94.051C238.201 95.679 235.379 96.5102 231.906 96.5102C228.867 96.5102 226.335 95.8234 224.489 94.5216C222.645 93.2198 221.704 91.2297 221.704 88.6987C221.704 87.1074 222.138 85.6246 223.007 84.3228C223.874 83.0211 224.924 82.0806 226.298 81.3938H226.299Z" fill="#001E2B"/>
</g>
<defs>
<clipPath id="clip0_3322_52">
<rect width="383" height="101" fill="white"/>
</clipPath>
</defs>
</svg>
