<svg width="316" height="79" viewBox="0 0 316 79" fill="none" xmlns="http://www.w3.org/2000/svg">
<g clip-path="url(#clip0_3678_121)">
<mask id="mask0_3678_121" style="mask-type:luminance" maskUnits="userSpaceOnUse" x="37" y="7" width="242" height="64">
<path d="M279 7H37V71H279V7Z" fill="white"/>
</mask>
<g mask="url(#mask0_3678_121)">
<path d="M55.7592 13.547C53.3015 10.622 51.1844 7.65141 50.7524 7.03417C50.7421 7.02337 50.7297 7.01477 50.7161 7.0089C50.7024 7.00303 50.6877 7 50.6728 7C50.6578 7 50.6431 7.00303 50.6295 7.0089C50.6158 7.01477 50.6034 7.02337 50.5931 7.03417C50.1606 7.65141 48.0441 10.622 45.5863 13.547C24.4892 40.5342 48.9091 58.7462 48.9091 58.7462L49.1137 58.8837C49.2957 61.694 49.7508 65.7388 49.7508 65.7388H51.5715C51.5715 65.7388 52.0267 61.7167 52.2087 58.8837L52.4138 58.7234C52.4364 58.7462 76.8558 40.5342 55.7592 13.547ZM50.6612 58.3352C50.6612 58.3352 49.5688 57.3979 49.273 56.9186V56.8726L50.5931 27.4862C50.5931 27.3947 50.7297 27.3947 50.7297 27.4862L52.0494 56.8726V56.9186C51.7535 57.3979 50.6612 58.3352 50.6612 58.3352Z" fill="#01EC64"/>
<path d="M96.3611 52.3385L86.1849 27.4102L86.1626 27.3414H78.2456V29.0169H79.5227C79.9108 29.0169 80.2757 29.1781 80.5499 29.453C80.8235 29.7285 80.9606 30.0959 80.9606 30.4864L80.7323 55.5744C80.7323 56.3552 80.0937 56.9977 79.3176 57.0209L78.0173 57.0437V58.6962H85.7292V57.0437L84.9304 57.0209C84.1548 56.9977 83.5157 56.3552 83.5157 55.575V31.9314L94.6043 58.6958C94.764 59.086 95.1289 59.3386 95.5402 59.3386C95.9504 59.3386 96.3153 59.086 96.475 58.6958L107.313 32.5283L107.473 55.5744C107.473 56.3775 106.834 57.0204 106.035 57.0431H105.214V58.6958H114.249V57.0431H113.016C112.242 57.0431 111.602 56.3775 111.58 55.5973L111.511 30.5083C111.511 30.1272 111.658 29.7609 111.922 29.4868C112.185 29.2128 112.546 29.0524 112.925 29.0396L114.249 29.0163V27.341H106.537L96.3607 52.3379L96.3611 52.3385ZM167.313 56.607C167.061 56.3544 166.924 56.0096 166.924 55.5954V43.2713C166.924 40.926 166.238 39.0862 164.866 37.7759C163.515 36.465 161.64 35.7984 159.307 35.7984C156.035 35.7984 153.451 37.1321 151.643 39.7532C151.621 39.7992 151.552 39.8224 151.484 39.8224C151.415 39.8224 151.369 39.7759 151.369 39.7072L150.523 36.4191H149.105L145.467 38.5116V39.6613H146.405C146.84 39.6613 147.206 39.7759 147.457 40.0063C147.709 40.2363 147.846 40.581 147.846 41.0636V55.5726C147.846 55.9865 147.709 56.3315 147.457 56.5848C147.206 56.8374 146.863 56.9753 146.451 56.9753H145.536V58.6536H153.908V56.9753H152.993C152.581 56.9753 152.238 56.8374 151.987 56.5848C151.735 56.3315 151.597 55.9865 151.597 55.5726V45.9612C151.597 44.7429 151.872 43.524 152.376 42.3279C152.901 41.1555 153.679 40.1666 154.709 39.4076C155.738 38.6491 156.974 38.2812 158.392 38.2812C159.993 38.2812 161.205 38.7871 161.96 39.7987C162.715 40.8104 163.104 42.1212 163.104 43.6847V55.5493C163.104 55.9632 162.967 56.3078 162.715 56.561C162.463 56.8142 162.12 56.9516 161.708 56.9516H160.793V58.6304H169.166V56.9522H168.251C167.908 56.9981 167.588 56.8601 167.313 56.607ZM243.804 29.2184C241.491 27.9824 238.904 27.341 236.113 27.341H225.223V29.0121H226.289C226.697 29.0121 227.06 29.1724 227.423 29.5384C227.764 29.8821 227.945 30.2713 227.945 30.6832V55.3113C227.945 55.7238 227.764 56.1126 227.423 56.4563C227.083 56.7995 226.697 56.9825 226.289 56.9825H225.222V58.6536H236.113C238.904 58.6536 241.491 58.0127 243.804 56.7763C246.118 55.5404 248.002 53.709 249.363 51.3747C250.724 49.0403 251.428 46.2248 251.428 43.0201C251.428 39.8158 250.724 37.023 249.363 34.6659C247.979 32.2856 246.118 30.477 243.804 29.2184ZM247.049 42.9746C247.049 45.9043 246.527 48.3762 245.506 50.3677C244.485 52.3589 243.124 53.8465 241.445 54.8083C239.766 55.7693 237.905 56.2501 235.909 56.2501H233.708C233.3 56.2501 232.937 56.0898 232.574 55.7238C232.233 55.3801 232.052 54.9913 232.052 54.5794V31.3469C232.052 30.9344 232.211 30.5689 232.574 30.2025C232.914 29.8592 233.3 29.6763 233.708 29.6763H235.909C237.905 29.6763 239.766 30.1565 241.445 31.118C243.124 32.0793 244.485 33.567 245.506 35.5586C246.527 37.5724 247.049 40.0675 247.049 42.9746ZM277.171 44.6457C276.164 43.478 274.219 42.4938 271.933 41.9672C275.09 40.388 276.712 38.1679 276.712 35.3064C276.712 33.7504 276.303 32.3539 275.477 31.164C274.655 29.974 273.488 29.0121 272.002 28.3484C270.514 27.6847 268.776 27.3414 266.809 27.3414H254.481V29.0121H255.465C255.877 29.0121 256.243 29.1724 256.609 29.5384C256.952 29.8821 257.135 30.2713 257.135 30.6832V55.3113C257.135 55.7238 256.952 56.1126 256.609 56.4563C256.265 56.7995 255.877 56.9825 255.465 56.9825H254.39V58.6536H267.771C269.806 58.6536 271.703 58.3103 273.419 57.6234C275.136 56.9369 276.507 55.9295 277.492 54.6022C278.497 53.2748 279.001 51.6492 279.001 49.7723C278.978 47.7584 278.383 46.0413 277.171 44.6457ZM261.824 55.7465C261.481 55.4034 261.297 55.0141 261.297 54.6022V43.5462H267.656C269.896 43.5462 271.612 44.1184 272.802 45.2624C273.991 46.4073 274.586 47.895 274.586 49.7263C274.586 50.8248 274.31 51.9009 273.809 52.885C273.282 53.892 272.503 54.6931 271.453 55.3113C270.423 55.9291 269.142 56.2501 267.656 56.2501H262.967C262.555 56.2501 262.189 56.0893 261.823 55.7461L261.824 55.7465ZM261.321 41.1891V31.3696C261.321 30.9577 261.48 30.5917 261.846 30.2252C262.189 29.8821 262.578 29.6991 262.99 29.6991H266.009C268.181 29.6991 269.783 30.2485 270.79 31.3014C271.795 32.3771 272.298 33.7504 272.298 35.4438C272.298 37.1837 271.818 38.5798 270.881 39.6328C269.942 40.6624 268.525 41.1891 266.65 41.1891H261.321ZM135.44 37.2576C133.693 36.3001 131.741 35.7976 129.63 35.7976C127.574 35.7976 125.648 36.2521 123.956 37.1818L123.819 37.2576C122.071 38.2158 120.687 39.6072 119.665 41.3637C118.644 43.12 118.122 45.1733 118.122 47.454C118.122 49.7353 118.644 51.7885 119.665 53.5449C120.687 55.3014 122.071 56.6928 123.819 57.6505C125.567 58.6086 127.519 59.1106 129.63 59.1106C131.685 59.1106 133.611 58.6565 135.303 57.7273L135.44 57.6509C137.188 56.6928 138.573 55.3014 139.594 53.5449C140.615 51.7885 141.137 49.7353 141.137 47.454C141.137 45.1733 140.615 43.12 139.594 41.3637C138.573 39.6072 137.189 38.2153 135.44 37.2576ZM137.12 47.454C137.12 50.2601 136.439 52.5409 135.077 54.1836C133.738 55.8258 131.9 56.6696 129.63 56.6696C127.401 56.6696 125.587 55.8556 124.255 54.2707L124.182 54.1836C122.82 52.5409 122.139 50.2601 122.139 47.454C122.139 44.6997 122.796 42.4507 124.109 40.8152L124.182 40.7251C125.521 39.0828 127.36 38.2386 129.63 38.2386C131.9 38.2386 133.738 39.0824 135.077 40.7251C136.439 42.3677 137.12 44.6485 137.12 47.454ZM215.879 37.2576C214.131 36.3001 212.179 35.7976 210.068 35.7976C208.014 35.7976 206.087 36.2521 204.395 37.1818L204.258 37.2576C202.51 38.2158 201.126 39.6072 200.105 41.3637C199.083 43.12 198.561 45.1733 198.561 47.454C198.561 49.7353 199.083 51.7885 200.105 53.5449C201.125 55.3014 202.51 56.6928 204.258 57.6505C206.006 58.6086 207.957 59.1106 210.068 59.1106C212.124 59.1106 214.05 58.6565 215.743 57.7273L215.88 57.6509C217.627 56.6928 219.011 55.3014 220.033 53.5449C221.054 51.7885 221.576 49.7353 221.576 47.454C221.576 45.1733 221.054 43.12 220.033 41.3637C219.012 39.6072 217.604 38.2153 215.879 37.2576ZM217.558 47.454C217.558 50.2601 216.877 52.5409 215.516 54.1836C214.176 55.8258 212.338 56.6696 210.068 56.6696C207.839 56.6696 206.026 55.8556 204.693 54.2707L204.621 54.1836C203.26 52.5409 202.578 50.2601 202.578 47.454C202.578 44.677 203.235 42.4498 204.547 40.8152L204.621 40.7251C205.96 39.0828 207.799 38.2386 210.068 38.2386C212.338 38.2386 214.176 39.0824 215.516 40.7251C216.855 42.3677 217.558 44.6485 217.558 47.454ZM183.44 35.798C181.61 35.798 179.942 36.1872 178.433 36.9666C176.925 37.7455 175.735 38.7999 174.89 40.1519C174.049 41.4638 173.604 42.992 173.61 44.5518C173.61 45.9726 173.93 47.2786 174.593 48.4477C175.233 49.5704 176.101 50.51 177.199 51.2889L173.93 55.7347C173.519 56.2847 173.473 57.0181 173.77 57.614C174.09 58.2326 174.685 58.599 175.37 58.599H176.308C175.432 59.1922 174.723 59.8905 174.223 60.7135L174.158 60.822C173.564 61.8072 173.267 62.8387 173.267 63.8926C173.267 65.8282 174.105 67.4325 175.759 68.6395L175.85 68.7049C177.543 69.9195 179.919 70.5381 182.913 70.5381C184.993 70.5381 186.982 70.1945 188.789 69.5298C190.565 68.8846 192.017 67.9359 193.105 66.7062L193.199 66.5971C194.32 65.3134 194.891 63.7551 194.891 61.9679C194.891 60.0886 194.206 58.7593 192.606 57.4764C191.234 56.3993 189.085 55.8267 186.411 55.8267H177.268C177.254 55.8255 177.242 55.8202 177.231 55.8115L177.222 55.8034L177.218 55.7939C177.213 55.7793 177.205 55.7513 177.222 55.7347L179.599 52.5267C180.162 52.7897 180.752 52.9894 181.36 53.1221C181.907 53.2368 182.525 53.2828 183.211 53.2828C185.13 53.2828 186.868 52.8931 188.377 52.1142C189.886 51.3349 191.097 50.2809 191.966 48.9285C192.834 47.5996 193.269 46.11 193.269 44.529C193.269 42.8332 192.446 39.7394 190.206 38.1584C190.206 38.1442 190.214 38.139 190.22 38.1366L190.228 38.1352L195.143 38.6851V36.4166H187.279C186.045 36.027 184.765 35.798 183.44 35.798ZM186.182 50.1435C185.314 50.6015 184.377 50.8537 183.44 50.8537C181.908 50.8537 180.559 50.3037 179.417 49.2266C178.274 48.1496 177.702 46.5685 177.702 44.5518C177.702 42.535 178.274 40.9535 179.417 39.877C180.559 38.7999 181.907 38.2499 183.44 38.2499C184.36 38.2499 185.237 38.4604 186.074 38.9013L186.182 38.96C187.051 39.4185 187.76 40.1292 188.331 41.0688C188.879 42.0083 189.177 43.1769 189.177 44.5518C189.177 45.9498 188.903 47.1184 188.331 48.0348C187.783 48.9744 187.051 49.685 186.182 50.1435ZM179.988 58.5763H186.182C187.897 58.5763 188.994 58.92 189.725 59.6534C190.457 60.3868 190.822 61.372 190.822 62.5177C190.822 64.1907 190.16 65.566 188.834 66.5967C187.508 67.6283 185.725 68.155 183.531 68.155C181.61 68.155 180.011 67.7198 178.844 66.8949C177.679 66.07 177.084 64.8089 177.084 63.2051C177.084 62.1968 177.359 61.2572 177.908 60.4323C178.456 59.6075 179.12 59.0115 179.988 58.5763Z" fill="#001E2B"/>
</g>
</g>
<defs>
<clipPath id="clip0_3678_121">
<rect width="242" height="64" fill="white" transform="translate(37 7)"/>
</clipPath>
</defs>
</svg>
