<svg width="316" height="79" viewBox="0 0 316 79" fill="none" xmlns="http://www.w3.org/2000/svg">
<path d="M68.5 66.7975C70.6064 66.7975 72.3125 65.0914 72.3125 62.985V29.9434H64.6875V62.985C64.6875 65.0914 66.3936 66.7975 68.5 66.7975Z" fill="#F9AB00"/>
<path d="M83.6896 42.0004C79.5785 37.8924 73.4372 37.06 68.5 39.5L84.8207 55.8207C85.4942 56.4942 86.6539 56.2274 86.9398 55.3219C88.3758 50.7755 87.2924 45.6064 83.6896 42.0004Z" fill="#5BB974"/>
<path d="M53.3103 42.0004C57.4215 37.8924 63.5628 37.06 68.5 39.5L52.1793 55.8207C51.5058 56.4942 50.3461 56.2274 50.0602 55.3219C48.6241 50.7755 49.7075 45.6064 53.3103 42.0004Z" fill="#129EAF"/>
<path d="M82.4792 29.3333C75.9852 29.3333 70.473 33.5906 68.5 39.5H94.3106C95.3686 39.5 96.0739 38.3816 95.5942 37.4381C93.1415 32.6248 88.1916 29.3333 82.4792 29.3333Z" fill="#AF5CF7"/>
<path d="M71.1973 22.4264C66.6033 27.0204 65.7169 33.9242 68.5 39.5L86.7523 21.2477C87.5021 20.4979 87.2098 19.208 86.2027 18.8807C81.0622 17.2128 75.2354 18.3883 71.1973 22.4264Z" fill="#FF8BCB"/>
<path d="M65.8027 22.4264C70.3968 27.0204 71.2832 33.9242 68.5001 39.5L50.2477 21.2477C49.4979 20.4979 49.7902 19.208 50.7974 18.8807C55.9379 17.2128 61.7647 18.3883 65.8027 22.4264Z" fill="#FA7B17"/>
<path d="M54.5209 29.3333C61.0148 29.3333 66.5271 33.5906 68.5 39.5H42.6894C41.6314 39.5 40.9261 38.3816 41.4059 37.4381C43.8586 32.6248 48.8085 29.3333 54.5209 29.3333Z" fill="#4285F4"/>
<path d="M120.2 44.5V59H115.6V23.2H127.8C130.9 23.2 133.533 24.2333 135.7 26.3C137.9 28.3667 139 30.8833 139 33.85C139 36.8833 137.9 39.4167 135.7 41.45C133.567 43.4833 130.933 44.5 127.8 44.5H120.2ZM120.2 27.6V40.1H127.9C129.733 40.1 131.25 39.4833 132.45 38.25C133.683 37.0167 134.3 35.55 134.3 33.85C134.3 32.1833 133.683 30.7333 132.45 29.5C131.25 28.2333 129.733 27.6 127.9 27.6H120.2ZM145.396 51.5C145.396 52.7 145.896 53.7 146.896 54.5C147.929 55.3 149.129 55.7 150.496 55.7C152.429 55.7 154.146 54.9833 155.646 53.55C157.179 52.1167 157.946 50.4333 157.946 48.5C156.513 47.3667 154.513 46.8 151.946 46.8C150.079 46.8 148.513 47.25 147.246 48.15C146.013 49.05 145.396 50.1667 145.396 51.5ZM151.346 33.7C154.746 33.7 157.429 34.6167 159.396 36.45C161.363 38.25 162.346 40.7333 162.346 43.9V59H157.946V55.6H157.746C155.846 58.4 153.313 59.8 150.146 59.8C147.446 59.8 145.179 59 143.346 57.4C141.546 55.8 140.646 53.8 140.646 51.4C140.646 48.8667 141.596 46.85 143.496 45.35C145.429 43.85 147.996 43.1 151.196 43.1C153.929 43.1 156.179 43.6 157.946 44.6V43.55C157.946 41.95 157.313 40.6 156.046 39.5C154.779 38.3667 153.296 37.8 151.596 37.8C149.029 37.8 146.996 38.8833 145.496 41.05L141.446 38.5C143.679 35.3 146.979 33.7 151.346 33.7ZM188.434 59H168.334V23.2H172.934V54.6H188.434V59ZM197.837 59H193.237V23.2H197.837L210.287 45H210.487L222.937 23.2H227.537V59H222.937V37.75L223.137 31.75H222.937L211.737 51.4H209.037L197.837 31.75H197.637L197.837 37.75V59ZM265.927 54.6V59H244.127V54.4L252.977 45.45C255.944 42.4167 257.994 40.15 259.127 38.65C260.26 37.1167 260.827 35.5167 260.827 33.85C260.827 32.35 260.244 31.0667 259.077 30C257.91 28.9333 256.41 28.4 254.577 28.4C253.01 28.4 251.66 28.8667 250.527 29.8C249.394 30.7333 248.66 31.8667 248.327 33.2L244.127 31.5C244.794 29.4 246.077 27.6333 247.977 26.2C249.877 24.7333 252.11 24 254.677 24C257.777 24 260.36 24.95 262.427 26.85C264.494 28.75 265.527 31.0833 265.527 33.85C265.527 37.15 263.71 40.7167 260.077 44.55L250.077 54.6H265.927Z" fill="#626467"/>
</svg>
